<?xml version="1.0" standalone="no"?>
<!DOCTYPE svg PUBLIC "-//W3C//DTD SVG 20010904//EN"
 "http://www.w3.org/TR/2001/REC-SVG-20010904/DTD/svg10.dtd">
<svg version="1.0" xmlns="http://www.w3.org/2000/svg"
 width="900.000000pt" height="900.000000pt" viewBox="0 0 900.000000 900.000000"
 preserveAspectRatio="xMidYMid meet">

<g transform="translate(0.000000,900.000000) scale(0.100000,-0.100000)"
fill="#000000" stroke="none">
<path d="M0 4500 l0 -4500 1394 0 c1106 0 1395 3 1399 13 4 9 6 9 6 0 1 -10
44 -13 181 -13 173 0 180 1 180 20 0 11 5 20 10 20 6 0 10 -9 10 -20 0 -15 7
-20 24 -20 14 0 28 5 31 10 4 7 12 7 25 0 32 -17 60 -12 60 10 0 11 5 20 10
20 6 0 10 -9 10 -20 0 -19 7 -20 90 -20 83 0 90 1 90 20 0 11 7 20 15 20 8 0
15 5 15 10 0 6 -7 13 -15 16 -8 4 -15 17 -15 30 0 19 5 24 24 24 13 0 26 -7
30 -15 7 -19 26 -19 26 0 0 8 -4 15 -10 15 -5 0 -10 18 -10 40 0 65 17 46 24
-28 12 -120 16 -132 42 -132 23 0 24 3 24 60 0 46 3 60 15 60 10 0 17 -14 21
-40 l7 -41 23 22 c13 12 24 31 24 41 0 11 7 18 18 18 13 0 20 -13 28 -45 l10
-45 -32 -9 c-17 -5 -43 -6 -58 -4 -15 3 -26 1 -26 -6 0 -8 106 -11 375 -11
358 0 375 1 375 18 0 41 42 60 138 61 61 1 67 19 11 34 -39 10 -237 202 -285
277 -16 25 -31 47 -35 50 -3 3 -13 19 -21 35 -9 17 -29 55 -46 85 -33 59 -92
271 -92 330 0 20 -5 61 -10 91 -6 31 -12 114 -14 185 -2 71 -9 156 -15 189
-14 75 -31 447 -30 660 0 88 -2 252 -6 365 l-7 205 34 51 c27 40 33 56 26 73
-7 20 -13 22 -46 17 -20 -3 -68 -8 -107 -12 -65 -5 -99 -13 -228 -48 -33 -9
-47 -10 -44 -2 2 6 12 12 23 14 10 2 28 7 39 12 11 5 31 11 45 14 14 2 45 10
70 16 25 7 61 16 80 20 19 4 64 15 100 25 36 9 81 18 100 19 19 2 55 6 80 10
184 25 392 36 515 26 375 -30 710 -73 757 -97 15 -7 48 -16 73 -20 25 -3 45
-9 45 -12 0 -4 24 -13 53 -20 28 -7 77 -26 108 -42 31 -16 64 -29 72 -29 9 0
35 -13 59 -28 24 -16 59 -35 78 -42 19 -7 45 -23 56 -34 12 -12 38 -36 59 -55
65 -60 70 -73 67 -185 -3 -118 -20 -254 -34 -262 -7 -5 -139 51 -174 74 -50
32 -102 70 -118 84 -37 34 -154 88 -189 88 -47 0 -128 -63 -149 -117 -26 -65
-30 -114 -13 -162 8 -24 15 -47 15 -52 0 -5 -34 -6 -75 -2 -59 5 -79 3 -99
-10 -32 -22 -54 -68 -66 -143 -15 -89 -12 -118 15 -177 13 -29 29 -82 34 -117
6 -35 26 -97 46 -138 36 -77 38 -95 5 -75 -31 20 -114 27 -142 12 -41 -22 -96
-96 -113 -152 -16 -50 -16 -54 4 -97 11 -25 43 -70 71 -100 27 -30 50 -59 50
-64 0 -10 41 -96 53 -111 17 -22 80 -122 99 -160 12 -22 31 -53 44 -70 12 -16
24 -39 26 -50 3 -18 -2 -20 -52 -17 -57 3 -133 16 -210 35 -184 46 -258 -53
-192 -258 10 -33 22 -82 25 -108 l7 -48 -40 3 c-58 3 -58 -8 0 -22 28 -7 57
-19 65 -26 11 -12 44 -14 157 -12 l143 3 -70 35 c-38 19 -76 40 -82 47 -7 6
-26 17 -43 24 -22 10 -29 19 -25 34 3 11 2 14 -1 8 -3 -7 -10 -13 -15 -13 -15
0 -75 64 -93 98 -19 37 -21 65 -3 41 17 -23 122 -77 164 -85 19 -4 44 -2 55 3
20 9 18 11 -21 31 -23 12 -49 22 -59 22 -21 0 -67 28 -104 63 -30 28 -37 72
-18 107 14 26 88 36 131 17 54 -23 122 -36 139 -27 9 5 22 5 30 0 8 -5 36 -12
62 -15 31 -5 48 -12 48 -21 0 -8 6 -14 14 -14 7 0 19 -7 27 -16 7 -9 21 -13
33 -10 12 3 35 1 51 -4 17 -5 42 -12 57 -15 19 -4 26 -10 22 -20 -5 -12 3 -15
42 -15 47 0 52 13 9 22 -11 3 10 5 46 5 70 1 108 -10 77 -22 -9 -4 -26 -2 -37
5 -19 9 -21 8 -21 -13 0 -22 5 -25 53 -30 28 -2 62 -1 75 4 27 10 62 -4 62
-26 0 -7 -10 -15 -22 -18 -13 -2 3 -3 34 -3 l57 1 -41 38 c-22 21 -38 40 -35
43 2 3 12 -2 20 -11 9 -8 20 -15 24 -15 5 0 22 -13 38 -30 16 -16 35 -30 42
-30 7 0 13 -6 13 -14 0 -8 7 -16 15 -20 8 -3 15 -13 15 -22 0 -12 -6 -15 -22
-10 -13 4 -38 9 -55 13 -28 5 -33 3 -33 -13 0 -17 7 -19 60 -16 47 3 60 1 60
-11 0 -29 47 -67 85 -67 19 0 35 -4 35 -10 0 -5 7 -10 15 -10 8 0 15 -4 15
-10 0 -6 33 -10 80 -10 78 0 80 1 70 20 -6 11 -15 20 -21 20 -20 0 -299 305
-299 328 0 4 -23 31 -50 61 -28 29 -50 57 -50 62 0 5 -3 9 -8 9 -8 0 -72 56
-72 64 0 2 6 6 13 9 6 2 0 2 -15 0 -14 -2 -35 0 -45 6 -23 13 -70 32 -163 66
-100 36 -353 161 -384 190 -13 12 -31 25 -40 28 -23 9 -32 37 -15 48 8 5 9 9
4 9 -6 0 -17 -6 -24 -12 -11 -10 -14 -10 -18 -1 -3 7 -11 13 -19 13 -8 0 -14
4 -14 9 0 4 -11 20 -25 33 -26 26 -52 85 -42 95 4 3 25 -15 49 -39 54 -57 81
-71 119 -63 38 9 42 45 4 45 -14 0 -25 5 -25 10 0 6 -5 10 -11 10 -17 0 -72
49 -92 82 -15 26 -16 32 -2 57 21 41 72 82 93 74 35 -13 142 -75 142 -83 0 -4
27 -10 61 -13 34 -3 68 -12 78 -21 10 -9 25 -16 34 -16 9 0 18 -4 21 -9 3 -5
32 -19 63 -31 62 -25 91 -45 80 -57 -4 -3 -13 -1 -19 5 -19 19 -50 15 -44 -5
19 -70 16 -66 38 -47 16 16 21 16 28 4 13 -21 12 -40 -2 -40 -9 0 -9 -3 0 -12
7 -7 12 -25 12 -40 0 -46 18 -32 22 17 2 25 -1 45 -5 45 -5 0 -5 5 -2 10 3 6
19 10 36 10 16 0 29 5 29 10 0 6 6 10 13 10 15 0 22 -96 7 -105 -17 -10 -11
-25 10 -25 14 0 20 7 20 23 0 13 6 29 12 35 10 10 10 14 1 20 -20 13 23 45 45
33 9 -5 37 -12 62 -16 25 -4 61 -14 80 -24 19 -9 42 -16 50 -17 42 -3 48 -5
54 -19 4 -13 2 -13 -14 -5 -24 13 -100 13 -100 0 0 -5 9 -10 19 -10 11 0 23
-4 26 -10 3 -5 17 -10 31 -10 13 0 24 -4 24 -10 0 -5 -4 -10 -10 -10 -15 0
-12 -29 5 -46 17 -18 63 -24 67 -9 2 6 -9 11 -24 13 -20 2 -28 9 -28 23 0 25
54 27 69 2 6 -10 11 -12 11 -5 0 13 30 17 30 4 0 -5 20 -23 45 -40 29 -20 45
-38 43 -49 -2 -10 2 -18 9 -18 6 0 27 -18 46 -40 26 -31 34 -47 30 -67 -3 -14
0 -29 6 -33 8 -5 10 1 5 19 -3 14 -4 26 -1 26 9 0 173 -164 209 -210 53 -67
223 -240 237 -240 25 0 8 40 -36 86 -27 27 -73 79 -103 114 -30 36 -65 75 -77
87 -12 13 -34 39 -50 60 -15 21 -57 68 -93 104 -56 58 -106 113 -140 156 -6 7
-10 15 -10 19 0 4 -10 21 -23 38 -13 17 -29 47 -37 66 -7 19 -21 44 -30 55 -9
11 -27 37 -39 58 -13 20 -29 37 -37 37 -8 0 -14 4 -14 9 0 5 -10 12 -22 16
-35 10 -90 32 -178 73 -36 16 -87 38 -113 47 -26 10 -52 26 -58 37 -5 10 -21
18 -34 18 -27 0 -191 79 -240 115 -16 13 -50 33 -74 46 -67 37 -74 41 -124 84
-25 22 -52 52 -58 67 -6 16 -15 28 -19 28 -4 0 -11 8 -15 18 -11 25 -23 92
-17 92 2 0 24 -18 48 -40 24 -22 55 -46 69 -52 17 -7 25 -20 26 -37 2 -25 2
-25 6 -3 3 15 10 22 18 18 17 -6 42 22 29 32 -5 4 -41 29 -79 55 -49 33 -78
60 -94 91 l-24 43 23 38 23 37 61 -5 c83 -7 139 -20 143 -34 2 -6 -8 -14 -24
-16 -15 -2 -10 -3 12 -1 44 3 75 -8 56 -20 -18 -11 -1 -27 21 -20 11 3 34 0
51 -7 142 -55 254 -107 275 -126 7 -7 19 -13 26 -13 12 0 105 -42 168 -76 14
-8 35 -14 46 -14 21 0 46 -23 36 -33 -3 -3 13 -6 36 -5 42 0 120 -28 120 -44
0 -4 -9 -8 -20 -8 -11 0 -20 -5 -20 -10 0 -6 11 -8 26 -4 42 11 97 9 139 -3
22 -7 51 -14 65 -17 49 -10 177 -159 255 -294 6 -10 26 -40 45 -67 48 -68 60
-87 66 -108 4 -9 9 -17 13 -17 3 0 13 -15 20 -32 14 -31 69 -117 82 -128 3 -3
9 -17 12 -32 4 -15 13 -33 20 -40 7 -7 19 -29 27 -48 8 -19 23 -44 33 -55 10
-11 26 -33 34 -50 9 -16 29 -46 45 -65 16 -19 33 -41 39 -48 15 -18 39 -14 39
7 0 10 -7 24 -15 31 -8 7 -15 18 -15 24 0 6 -14 27 -30 46 -41 48 -43 52 -57
80 -15 29 -36 63 -44 70 -3 3 -11 21 -19 40 -8 19 -17 37 -21 40 -3 3 -18 28
-32 56 -15 29 -40 72 -57 97 -16 25 -30 52 -30 60 0 8 -14 29 -30 47 -30 32
-39 60 -20 60 6 0 10 8 10 18 -1 16 -2 16 -15 -2 -13 -17 -15 -17 -29 -3 -9 9
-16 21 -16 27 0 7 -13 29 -29 49 -15 20 -33 46 -40 58 -24 46 -124 173 -136
173 -7 0 -15 6 -18 13 -5 12 -145 63 -312 112 -33 10 -67 24 -75 30 -8 7 -51
25 -95 41 -78 27 -152 61 -286 129 -78 40 -167 75 -191 75 -10 0 -18 4 -18 9
0 5 -14 14 -31 21 -17 7 -38 25 -47 39 -8 14 -20 31 -26 36 -28 26 -46 76 -46
129 0 58 15 75 26 31 3 -14 10 -25 15 -25 5 0 9 -6 9 -13 0 -13 17 -30 88 -89
27 -22 37 -26 53 -18 23 13 25 28 3 37 -27 10 -99 86 -119 125 -24 46 -13 87
29 107 25 11 33 11 64 -5 58 -30 116 -68 125 -81 4 -7 14 -13 22 -13 8 0 30
-15 50 -34 24 -23 49 -36 77 -41 24 -4 57 -18 75 -31 17 -13 36 -24 42 -24 6
0 11 -4 11 -9 0 -5 18 -12 39 -16 40 -7 74 -35 85 -70 8 -27 46 -51 56 -35 5
8 13 9 26 2 37 -21 133 -62 143 -62 6 0 21 -10 33 -23 13 -13 28 -22 34 -20
15 5 179 -43 233 -68 62 -29 147 -98 165 -135 8 -16 28 -46 43 -65 15 -20 39
-60 52 -90 13 -30 37 -81 54 -114 88 -174 140 -279 179 -360 46 -94 114 -208
129 -213 5 -2 9 -9 9 -17 0 -7 7 -18 16 -26 8 -7 26 -34 40 -60 25 -51 39
-162 48 -384 5 -133 20 -195 49 -195 16 0 19 5 14 30 -4 16 -9 84 -13 151 -7
114 -6 121 11 118 11 -3 22 -17 27 -37 6 -24 14 -32 26 -30 28 5 26 50 -3 78
-27 25 -33 50 -12 50 7 0 18 -5 25 -12 19 -19 15 53 -4 81 -15 21 -15 24 4 42
12 10 28 19 35 19 8 0 20 7 27 15 8 10 31 15 71 15 45 0 59 3 59 14 0 8 -4 18
-10 21 -5 3 -10 24 -10 46 0 39 0 39 40 39 29 0 40 4 40 15 0 9 7 18 15 21 10
4 13 13 10 25 -5 15 -1 19 20 19 14 0 35 -9 47 -20 12 -11 30 -20 40 -20 27 0
22 29 -7 40 -14 5 -25 16 -25 25 0 18 2 18 35 3 14 -6 25 -16 25 -21 0 -6 7
-19 17 -29 15 -17 15 -18 -1 -18 -14 0 -17 -8 -14 -37 3 -35 6 -38 35 -41 30
-3 32 -6 36 -45 3 -40 4 -39 5 10 1 28 -3 55 -9 58 -6 4 -14 17 -19 29 -10 26
13 56 38 49 9 -2 26 3 37 11 20 15 20 15 1 29 -18 13 -18 14 12 19 18 2 32 1
32 -3 0 -3 13 -12 30 -19 38 -16 38 -24 1 -40 -16 -6 -28 -17 -26 -23 2 -7 6
-24 9 -39 l6 -27 25 25 c14 14 25 34 25 46 0 17 2 18 15 8 13 -11 18 -10 30 6
16 22 18 16 15 -54 -1 -36 1 -42 19 -42 11 0 22 -9 26 -20 8 -24 21 -26 29 -5
6 17 -22 55 -41 55 -7 0 -13 11 -13 24 0 34 30 38 100 14 44 -14 60 -25 60
-38 0 -10 -6 -21 -12 -23 -10 -4 -10 -6 0 -6 6 -1 12 -9 12 -20 0 -16 33 -31
71 -31 20 0 7 18 -16 24 -14 4 -25 11 -25 16 0 13 87 13 95 0 9 -14 101 -13
124 2 16 10 26 9 53 -4 18 -9 52 -24 76 -34 43 -17 52 -28 30 -37 -8 -3 -5 -6
5 -6 10 -1 28 4 39 10 14 8 23 8 31 0 19 -19 37 -12 37 14 0 18 -5 25 -20 25
-11 0 -20 4 -20 8 0 5 -15 13 -32 19 -18 6 -58 21 -88 32 -30 12 -69 21 -87
21 -18 0 -33 5 -33 10 0 6 -10 10 -21 10 -12 0 -29 8 -38 18 -9 10 -47 29 -85
41 -39 13 -76 30 -84 38 -8 8 -21 12 -28 9 -14 -5 -70 19 -79 35 -4 5 -19 9
-35 9 -15 0 -30 7 -33 14 -4 9 -1 13 6 11 7 -3 19 0 27 5 13 8 13 11 -2 26
-15 16 -21 16 -43 4 -14 -8 -23 -20 -21 -27 6 -14 -3 -16 -28 -7 -9 3 -16 12
-16 18 0 19 -88 56 -133 56 -11 0 -25 6 -31 13 -6 8 -32 22 -58 31 -54 20 -60
31 -22 40 19 5 30 1 44 -16 18 -22 19 -22 26 -4 5 12 3 21 -4 24 -7 2 -12 21
-12 42 0 45 20 55 63 31 35 -20 34 -30 -3 -42 -26 -10 -30 -16 -30 -48 0 -44
14 -61 52 -61 33 0 37 15 7 23 -12 3 -18 10 -14 16 8 14 35 14 35 1 0 -5 5
-10 10 -10 6 0 10 11 10 25 0 16 6 25 15 25 12 0 14 7 9 28 -10 40 -14 44 -30
31 -11 -9 -14 -8 -14 8 0 10 -5 24 -12 31 -9 9 -9 15 0 24 9 9 12 8 12 -4 0
-9 14 -22 30 -30 29 -12 30 -15 30 -77 0 -53 2 -62 16 -57 9 3 18 6 20 6 2 0
4 9 4 20 0 11 5 20 10 20 6 0 10 19 10 42 0 56 6 46 14 -24 6 -54 5 -58 -14
-58 -13 0 -20 -7 -20 -19 0 -11 -6 -22 -13 -24 -6 -3 8 -5 33 -5 25 0 39 2 33
5 -15 6 -17 43 -3 43 6 0 10 16 10 35 0 37 10 44 30 20 19 -23 60 -18 86 10
26 28 64 32 107 13 30 -14 31 -35 1 -30 -10 2 -16 0 -11 -4 4 -4 0 -16 -10
-26 -15 -17 -15 -18 10 -18 20 0 27 5 27 19 0 27 61 37 102 17 17 -9 37 -16
45 -16 18 0 16 -17 -4 -28 -14 -9 -14 -11 6 -21 17 -10 22 -9 27 4 9 22 32 19
148 -20 58 -19 108 -35 111 -35 4 0 5 12 3 27 -3 23 -10 29 -53 41 -27 8 -69
23 -93 33 -23 10 -48 19 -55 19 -6 0 -34 11 -61 25 -27 14 -58 25 -68 25 -11
0 -26 7 -34 15 -9 8 -29 15 -45 15 -16 0 -29 3 -29 8 0 8 -70 32 -93 32 -8 0
-22 9 -32 20 -13 15 -31 20 -67 20 -26 0 -48 4 -48 9 0 4 -36 25 -80 45 -74
34 -98 58 -67 69 10 4 10 7 0 18 -23 23 -15 45 15 44 23 0 27 4 27 27 1 16 6
33 13 40 17 17 15 58 -3 65 -9 3 -24 -2 -34 -11 -23 -21 -31 -20 -31 3 0 10 7
21 15 25 23 8 18 45 -7 55 -13 5 -38 15 -55 23 -20 8 -33 20 -33 30 0 14 -9
18 -40 18 -33 0 -40 3 -40 20 0 11 7 20 16 20 11 0 14 8 12 27 -2 22 -9 29
-31 31 -21 3 -30 -1 -34 -16 -7 -29 -35 -17 -56 25 -16 33 -17 38 -3 52 15 14
16 13 16 -7 0 -20 5 -22 48 -22 39 -1 52 -6 77 -31 l30 -31 3 26 c3 22 10 27
43 32 21 4 39 12 39 18 0 6 12 17 28 23 20 9 31 25 40 57 15 47 92 135 92 103
0 -22 26 -22 38 0 6 11 6 25 -1 40 -12 26 -37 31 -37 7 0 -10 -6 -14 -17 -10
-10 2 -28 7 -40 11 -21 6 -23 3 -23 -39 0 -37 -3 -44 -16 -39 -12 4 -14 14 -8
46 8 51 19 71 64 120 34 37 35 37 42 15 l6 -23 7 23 c4 12 11 22 15 22 10 0
30 -47 30 -72 0 -14 5 -18 16 -14 9 3 20 6 25 6 5 0 9 18 9 40 0 29 -4 40 -15
40 -8 0 -15 5 -15 10 0 6 -18 10 -39 10 -45 0 -53 7 -44 38 4 18 13 22 44 22
28 0 39 4 39 15 0 8 -9 15 -19 15 -29 0 -33 28 -11 86 l20 54 -21 11 c-11 6
-45 13 -75 16 -58 6 -69 17 -29 27 14 4 25 11 25 16 0 6 7 10 15 10 8 0 15 7
15 16 0 8 5 12 10 9 6 -4 10 -16 8 -28 -2 -17 4 -24 30 -32 17 -5 32 -13 32
-17 0 -4 18 -8 40 -8 36 0 40 3 40 25 0 23 -4 25 -40 25 -26 0 -40 4 -40 13 0
18 -24 67 -32 67 -5 0 -8 18 -8 40 0 33 3 40 20 40 12 0 20 7 20 16 0 16 19
15 64 -2 13 -5 16 1 16 30 0 20 5 36 10 36 6 0 10 -35 10 -85 0 -80 2 -88 28
-113 l27 -27 3 30 c2 16 -1 31 -7 33 -14 5 -15 162 -1 162 6 0 10 33 10 80 0
73 2 80 20 80 17 0 20 -7 20 -40 0 -33 3 -40 19 -40 11 0 23 5 26 10 3 6 22
10 41 10 33 0 34 -1 34 -37 0 -31 -5 -40 -27 -50 -15 -7 -33 -13 -40 -13 -7 0
-13 -6 -13 -13 0 -17 -23 -67 -31 -67 -8 0 -19 37 -19 63 0 12 8 17 25 17 14
0 25 4 25 9 0 5 9 11 20 14 14 3 20 14 20 31 0 37 -27 33 -70 -9 -36 -35 -36
-36 -28 -93 4 -31 5 -69 2 -85 -4 -22 -2 -27 13 -27 17 0 43 40 43 67 0 10 14
13 50 12 62 -3 76 8 21 17 -56 9 -58 39 -3 48 l38 6 -6 50 c-7 58 11 87 43 69
14 -9 17 -6 17 21 0 33 24 42 44 14 10 -14 14 -13 34 4 31 27 28 32 -24 32
-35 0 -50 -5 -64 -22 -15 -19 -20 -20 -34 -9 -20 17 -21 60 -1 67 23 9 18 24
-8 24 -14 0 -39 -16 -62 -41 -36 -36 -38 -41 -22 -50 23 -13 22 -29 -3 -29
-18 0 -20 7 -20 60 0 48 -3 60 -16 60 -9 0 -14 5 -12 11 2 6 42 12 96 15 l92
4 0 -27 c0 -26 1 -26 58 -20 50 5 59 4 70 -13 13 -21 72 -29 72 -10 0 6 -9 10
-20 10 -17 0 -20 7 -20 40 l0 40 -80 0 c-64 0 -80 3 -80 15 0 11 11 15 35 15
27 0 44 8 70 35 30 29 35 41 35 80 0 38 -3 45 -20 45 -17 0 -20 -7 -20 -40 0
-22 -4 -40 -10 -40 -5 0 -10 -13 -10 -30 0 -28 -2 -30 -40 -30 -38 0 -40 2
-40 30 0 29 -1 30 -47 30 -27 0 -57 7 -68 16 -20 15 -20 15 -1 30 28 20 34 18
38 -12 l3 -25 34 35 35 36 -27 0 c-29 0 -34 9 -16 27 13 13 -9 53 -28 53 -9 0
-13 15 -13 43 l0 42 50 -3 c31 -3 57 1 66 9 11 9 18 9 26 1 9 -9 8 -12 -6 -12
-14 0 -17 -5 -12 -22 3 -13 6 -31 6 -40 0 -34 20 -18 26 21 l6 38 27 -25 26
-24 3 26 c3 22 8 26 38 26 33 0 34 1 34 40 0 33 -3 40 -20 40 -16 0 -20 7 -20
31 0 40 -16 69 -38 69 -26 0 -42 -20 -42 -51 0 -22 4 -26 21 -22 26 7 59 -27
59 -62 0 -22 -4 -25 -38 -25 -32 0 -39 4 -50 30 -14 30 -47 41 -54 18 -3 -8
-20 -11 -49 -9 -68 4 -72 21 -6 21 l57 0 0 40 c0 38 2 40 30 40 28 0 30 2 30
40 0 32 -4 40 -19 40 -13 0 -21 11 -29 40 -11 44 5 58 23 19 9 -18 19 -21 78
-23 70 -1 82 5 46 25 -16 8 -18 13 -9 19 9 5 9 9 1 14 -6 4 -11 16 -11 27 0
16 5 19 20 14 24 -7 27 14 8 45 -10 16 -10 24 0 40 6 11 12 38 12 60 l0 40
-60 0 c-33 0 -60 4 -60 10 0 6 18 10 40 10 29 0 40 4 40 15 0 8 9 15 20 15 16
0 20 7 20 31 0 17 -5 40 -11 52 -9 16 -9 22 0 25 8 3 11 532 11 2084 0 2075 0
2079 -20 2073 -14 -5 -20 -2 -20 9 0 9 9 16 20 16 19 0 20 7 20 149 0 110 -3
151 -12 154 -10 4 -10 6 0 6 7 1 12 15 12 36 0 34 -1 35 -39 35 -33 0 -40 -4
-45 -25 -8 -31 -22 -25 -28 10 -5 24 -4 25 53 25 l59 0 0 34 c0 28 -4 35 -22
39 l-23 4 23 2 c22 1 22 2 22 156 l0 155 -4500 0 -4500 0 0 -4500z m8800 4330
c0 -5 -2 -10 -4 -10 -3 0 -8 5 -11 10 -3 6 -1 10 4 10 6 0 11 -4 11 -10z
m-105 -320 c-3 -5 -10 -10 -16 -10 -5 0 -9 5 -9 10 0 6 7 10 16 10 8 0 12 -4
9 -10z m112 -27 c-3 -10 -5 -4 -5 12 0 17 2 24 5 18 2 -7 2 -21 0 -30z m153
-3 c0 -5 -18 -10 -40 -10 -22 0 -40 5 -40 10 0 6 18 10 40 10 22 0 40 -4 40
-10z m-83 -42 c-3 -8 -6 -5 -6 6 -1 11 2 17 5 13 3 -3 4 -12 1 -19z m-90 -4
c-3 -3 -12 -4 -19 -1 -8 3 -5 6 6 6 11 1 17 -2 13 -5z m108 -64 c3 -5 -1 -10
-10 -10 -9 0 -13 5 -10 10 3 6 8 10 10 10 2 0 7 -4 10 -10z m-105 -10 c0 -12
-28 -25 -36 -17 -9 9 6 27 22 27 8 0 14 -5 14 -10z m37 -6 c-3 -3 -12 -4 -19
-1 -8 3 -5 6 6 6 11 1 17 -2 13 -5z m-7 -189 c0 -8 -4 -15 -10 -15 -5 0 -10 7
-10 15 0 8 5 15 10 15 6 0 10 -7 10 -15z m57 -67 c-3 -7 -5 -2 -5 12 0 14 2
19 5 13 2 -7 2 -19 0 -25z m33 -249 c11 -8 12 -12 2 -16 -7 -2 -19 -12 -28
-20 -8 -8 -18 -12 -22 -8 -4 4 -1 10 6 12 6 3 12 13 12 24 0 21 8 24 30 8z
m50 -169 c0 -5 -4 -10 -10 -10 -5 0 -10 5 -10 10 0 6 5 10 10 10 6 0 10 -4 10
-10z m-1600 -2997 c35 -23 87 -99 76 -111 -3 -2 1 -17 10 -33 18 -36 30 -237
28 -486 -2 -194 -10 -241 -50 -282 -13 -13 -24 -28 -24 -33 0 -9 -19 -28 -231
-228 -73 -69 -166 -160 -207 -202 -105 -109 -138 -130 -198 -126 -50 3 -64 16
-42 39 7 8 15 23 16 34 2 11 12 45 23 75 11 30 21 60 22 65 11 36 19 55 26 55
5 0 23 3 41 7 29 5 32 4 27 -11 -5 -12 -3 -16 5 -14 7 3 14 14 16 25 3 18 26
32 59 34 5 0 15 6 23 14 8 7 25 16 37 19 32 10 124 105 150 156 28 55 29 77 3
85 -27 9 -25 37 5 73 14 17 25 38 25 47 0 9 12 22 28 27 15 6 41 32 58 57 33
49 50 52 48 9 -2 -20 3 -28 15 -28 13 0 13 2 2 9 -11 7 -9 11 8 20 19 11 21
20 21 117 0 90 -4 113 -26 166 -38 91 -71 128 -114 128 -19 -1 -53 -9 -75 -20
-63 -29 -65 -9 -8 80 12 19 24 45 26 57 2 13 6 26 10 29 4 4 7 16 7 26 0 10 4
18 9 18 5 0 12 17 16 38 10 59 27 78 71 79 22 1 50 -6 64 -14z m-1016 -188 c3
-11 21 -38 39 -60 19 -22 37 -55 41 -72 4 -18 18 -42 31 -55 24 -23 19 -48 -9
-48 -7 0 -17 -5 -24 -12 -7 -7 -30 -11 -52 -9 -35 2 -77 -7 -135 -30 -53 -21
-97 -30 -115 -24 -11 3 -19 9 -18 13 2 4 -4 22 -12 40 -12 25 -21 32 -45 33
-24 1 -25 3 -7 6 24 5 29 19 10 26 -10 3 -10 7 -1 19 16 19 9 98 -12 138 -17
33 -5 48 23 28 32 -22 92 -77 92 -84 0 -9 44 -43 56 -44 7 0 20 -12 29 -27 28
-42 66 -75 81 -69 30 12 3 95 -31 97 -16 1 -17 2 -3 6 25 6 30 35 19 100 -16
83 -15 87 13 66 14 -10 27 -27 30 -38z m-2362 -108 c7 -19 7 -32 -2 -42 -10
-12 -9 -15 7 -15 24 0 58 -34 48 -49 -3 -6 -24 -11 -46 -11 -22 0 -48 -4 -58
-9 -9 -5 -23 -6 -31 -1 -11 7 -10 11 3 25 9 9 21 13 27 10 6 -3 19 -3 30 0 20
6 20 7 -2 31 -13 13 -27 24 -33 24 -30 1 -37 17 -22 51 7 19 12 40 9 47 -2 7
-1 20 2 29 5 12 12 6 33 -23 14 -22 30 -51 35 -67z m1737 68 c11 -19 27 -35
35 -35 7 0 22 -12 31 -27 17 -26 66 -81 123 -138 14 -15 19 -26 12 -30 -6 -3
-8 -11 -5 -16 4 -5 -2 -9 -12 -10 -15 0 -14 -2 5 -11 39 -19 24 -28 -38 -24
-59 5 -117 25 -93 33 17 6 -2 43 -22 43 -22 0 -27 -17 -9 -34 18 -18 12 -20
-51 -16 -50 2 -65 15 -41 33 16 12 14 14 -23 26 -36 10 -41 15 -35 34 4 11 12
27 20 34 7 7 15 26 19 43 4 16 11 32 16 35 5 4 9 19 9 35 0 68 27 79 59 25z
m-1819 -135 c0 -11 -7 -20 -15 -20 -15 0 -21 21 -8 33 12 13 23 7 23 -13z
m2896 -64 c3 -13 16 -34 30 -47 17 -16 22 -29 18 -45 -3 -13 0 -56 7 -96 8
-40 12 -84 11 -96 -4 -29 16 -55 36 -47 10 4 12 0 7 -12 -3 -10 -13 -40 -20
-68 -29 -103 -83 -249 -94 -253 -6 -2 -11 -14 -11 -26 0 -31 -20 -86 -31 -86
-5 0 -9 -9 -9 -20 0 -10 -4 -29 -10 -42 -5 -13 -25 -68 -45 -123 -34 -93 -49
-131 -88 -212 -8 -18 -18 -47 -22 -64 -7 -29 -43 -111 -65 -149 -5 -8 -27 -51
-50 -95 -22 -44 -49 -93 -60 -110 -11 -16 -23 -37 -27 -45 -20 -43 -84 -127
-151 -199 -27 -29 -35 -32 -43 -21 -5 8 -7 21 -4 28 2 6 -1 12 -8 12 -7 0 -35
20 -61 45 -27 25 -53 45 -58 45 -5 0 -34 16 -64 35 -30 19 -59 35 -64 35 -6 0
-10 5 -10 10 0 6 -8 10 -18 10 -10 0 -26 6 -37 13 -28 19 -211 87 -233 87 -9
0 -33 8 -52 18 -43 23 -107 34 -116 21 -4 -6 -10 -5 -17 4 -14 16 -84 32 -207
48 -47 7 -98 13 -115 16 -16 2 -66 6 -110 8 -44 3 -96 10 -115 15 -19 5 -46
11 -60 12 -24 3 -25 5 -25 83 0 44 -4 86 -8 93 -14 20 -44 14 -62 -14 -15 -23
-16 -34 -6 -82 16 -80 15 -85 -14 -78 -58 15 -385 3 -395 -14 -3 -5 -48 -10
-100 -11 -66 -1 -98 -6 -108 -16 -9 -9 -18 -11 -24 -5 -5 5 -30 4 -61 -4 -176
-42 -187 -43 -187 -11 0 17 2 19 9 8 8 -12 17 -13 58 -2 26 7 63 15 81 19 34
7 44 27 14 27 -45 1 -82 17 -82 36 0 10 6 19 13 19 8 0 8 3 -2 9 -12 8 -13 16
-4 45 6 20 7 36 2 36 -5 0 -9 4 -9 9 0 12 87 19 105 8 8 -4 24 -3 35 3 14 7
26 8 39 1 14 -8 22 -7 31 4 18 22 -5 48 -30 35 -24 -13 -33 9 -16 41 21 42 10
59 -40 59 -42 0 -44 1 -44 30 0 28 2 30 40 30 54 0 51 20 -2 22 l-43 1 43 4
c23 2 42 9 42 16 1 7 9 3 18 -9 10 -12 28 -26 40 -33 29 -15 28 -29 -3 -43
-15 -7 -21 -14 -15 -18 8 -5 7 -15 -1 -34 -10 -21 -10 -29 0 -39 10 -9 15 -8
27 7 14 20 14 20 15 0 1 -10 1 -26 0 -35 -1 -8 7 -23 18 -33 11 -10 17 -25 14
-37 -3 -10 0 -19 6 -19 6 0 11 6 11 14 0 8 7 16 15 20 22 8 18 29 -10 56 -20
19 -22 26 -13 38 10 11 8 17 -7 28 -10 8 -22 14 -27 14 -4 0 -8 9 -8 19 0 20
54 81 71 81 15 0 10 70 -5 86 -23 22 -26 17 -26 -36 l0 -50 -37 0 c-35 0 -36
0 -18 20 17 19 17 21 0 40 -16 18 -16 20 -2 20 11 0 17 8 17 25 0 14 6 26 13
26 6 1 18 2 26 3 24 2 25 26 1 26 -17 0 -21 5 -18 28 2 21 9 28 31 30 22 3 27
8 27 30 -1 25 -2 25 -14 10 -7 -10 -20 -18 -28 -18 -8 0 -19 -5 -26 -12 -8 -8
-12 -9 -12 -1 0 6 6 13 13 16 8 2 0 16 -20 37 l-33 34 0 -27 c0 -14 5 -29 10
-32 6 -3 10 -26 10 -51 0 -24 -4 -44 -10 -44 -5 0 -10 -17 -10 -38 0 -26 -7
-45 -20 -57 -19 -17 -20 -17 -21 1 -1 10 -1 25 0 32 1 8 -5 19 -14 26 -15 11
-15 13 -1 25 9 8 16 29 16 50 0 20 5 42 11 48 7 7 9 20 5 30 -4 10 -10 13 -14
8 -4 -6 -18 -10 -32 -10 -18 0 -25 -5 -24 -17 1 -10 -4 -18 -12 -18 -8 0 -14
-6 -14 -14 0 -23 -19 -29 -27 -9 -4 10 -11 21 -17 25 -6 4 -6 16 2 33 14 31 8
60 -13 69 -8 3 -15 17 -15 31 0 20 5 25 25 25 16 0 25 -6 25 -16 0 -9 10 -24
22 -35 18 -15 20 -20 10 -27 -11 -7 -10 -10 3 -16 31 -11 65 -7 65 9 0 9 10
20 23 25 31 13 57 35 57 49 0 6 6 11 13 11 7 0 27 13 45 30 18 16 37 29 41 27
5 -1 22 14 39 33 31 35 56 35 34 0 -7 -11 -12 -31 -12 -44 0 -13 -7 -26 -15
-30 -8 -3 -15 -17 -15 -31 0 -24 2 -25 40 -19 32 5 45 3 61 -12 18 -16 19 -16
13 -1 -3 9 -10 17 -15 17 -5 0 -9 6 -9 13 0 16 88 97 106 97 7 0 22 28 34 63
11 34 27 70 35 81 13 18 15 17 39 -10 14 -16 26 -35 26 -41 0 -7 8 -13 18 -13
24 0 66 -61 49 -72 -7 -5 0 -6 15 -2 20 4 29 2 34 -10 3 -9 13 -16 21 -16 8 0
28 -13 45 -30 16 -16 34 -30 39 -30 5 0 41 -18 80 -40 39 -22 74 -40 78 -40 4
0 18 -11 31 -25 14 -15 48 -32 80 -41 30 -8 64 -19 75 -24 34 -15 98 -30 107
-24 15 9 8 31 -17 57 -14 13 -37 53 -51 88 -14 35 -30 68 -35 73 -16 18 -9 28
14 22 136 -41 194 -47 225 -23 15 12 16 31 1 22 -19 -12 -67 16 -94 54 -14 21
-32 67 -40 102 -7 35 -14 60 -15 54 -1 -5 -10 17 -21 49 -10 33 -17 61 -14 64
3 3 22 -12 43 -34 73 -74 175 -159 191 -159 30 0 22 33 -20 74 -22 23 -39 45
-35 48 3 3 12 -2 21 -11 9 -9 19 -16 23 -16 4 0 25 -16 47 -35 22 -20 49 -38
60 -41 11 -4 22 -10 25 -14 8 -11 118 -60 135 -60 9 0 19 -9 22 -20 7 -26 33
-26 33 0 0 13 -13 26 -39 39 -21 11 -41 27 -44 36 -4 8 -13 15 -21 15 -35 0
-172 116 -165 139 2 6 20 -3 39 -19 65 -57 123 -50 79 9 -12 17 -26 31 -31 31
-4 0 -8 11 -8 25 0 14 -5 25 -11 25 -5 0 -8 4 -4 10 4 6 15 6 30 0 14 -5 39
-7 55 -3 23 4 30 2 28 -8 -2 -9 12 -16 42 -20 152 -24 191 -28 245 -29 34 0
88 9 125 21 36 11 89 22 118 24 46 3 53 2 50 -13 -2 -9 -11 -16 -21 -16 -9 1
-17 -4 -17 -12 0 -8 6 -11 15 -8 8 4 17 -1 21 -10 9 -24 24 -19 24 8 0 14 4
27 9 30 5 3 9 17 9 31 0 14 2 28 4 31 3 2 36 13 73 24 37 11 75 26 85 35 22
19 32 19 50 -2 11 -13 15 -44 15 -113 0 -52 4 -103 8 -113 7 -16 10 -16 36 4
16 12 35 32 42 45 7 13 17 24 23 24 6 0 19 20 29 43 10 23 23 52 29 64 6 12 8
31 5 43 -3 11 1 27 9 35 8 8 20 37 27 65 13 53 33 66 43 26z m-2876 -26 c0 -7
-89 -28 -95 -22 -3 3 -1 10 4 16 10 11 91 16 91 6z m169 -63 c21 -26 -21 -37
-61 -16 -17 9 -18 13 -7 20 21 13 55 11 68 -4z m-832 -73 c-3 -3 -12 -4 -19
-1 -8 3 -5 6 6 6 11 1 17 -2 13 -5z m858 -87 c14 -44 19 -92 19 -167 0 -91 -4
-112 -24 -154 -28 -54 -32 -58 -54 -50 -21 8 -20 33 2 41 30 11 43 43 18 43
-16 0 -76 56 -76 71 0 5 -4 9 -10 9 -5 0 -10 7 -10 15 0 8 -9 15 -20 15 -11 0
-20 -6 -20 -14 0 -8 -7 -17 -16 -20 -8 -3 -12 -2 -9 3 3 5 6 32 6 60 2 51 2
51 35 51 45 0 84 16 84 35 0 8 9 15 20 15 13 0 20 7 20 20 0 17 -7 20 -40 20
-22 0 -40 5 -40 10 0 6 18 10 40 10 22 0 40 4 40 9 0 12 -92 20 -104 9 -6 -4
-18 -8 -28 -8 -11 0 -18 -7 -18 -20 0 -21 -26 -28 -32 -8 -3 8 -11 9 -24 3
-30 -13 -72 -16 -79 -5 -3 6 -3 11 2 11 45 7 63 10 90 12 18 1 38 10 45 19 12
16 127 39 154 31 6 -2 19 -32 29 -66z m-751 17 c3 -8 2 -12 -4 -9 -6 3 -10 10
-10 16 0 14 7 11 14 -7z m153 -16 c-15 -9 -19 -4 -11 16 5 14 9 15 15 5 5 -8
3 -17 -4 -21z m-342 -8 c-3 -5 -11 -10 -16 -10 -6 0 -7 5 -4 10 3 6 11 10 16
10 6 0 7 -4 4 -10z m535 0 c12 -8 11 -10 -7 -10 -13 0 -23 5 -23 10 0 13 11
13 30 0z m-130 -26 c0 -8 -7 -14 -15 -14 -15 0 -21 21 -9 33 10 9 24 -2 24
-19z m50 6 c12 -8 11 -10 -7 -10 -13 0 -23 5 -23 10 0 13 11 13 30 0z m-420
-7 c0 -17 -18 -35 -29 -29 -8 5 -7 11 2 21 13 16 27 19 27 8z m90 -32 c0 -11
-4 -23 -10 -26 -6 -4 -10 5 -10 19 0 14 5 26 10 26 6 0 10 -9 10 -19z m460
-60 c0 -30 -1 -31 -44 -31 -39 0 -45 -3 -54 -27 -10 -27 -10 -26 -11 15 -1 23
4 42 9 42 6 0 11 10 11 23 l2 22 4 -22 c5 -25 23 -32 23 -8 0 8 5 25 11 39
l12 25 18 -24 c11 -13 19 -37 19 -54z m240 69 c0 -5 -18 -10 -40 -10 -22 0
-40 5 -40 10 0 6 18 10 40 10 22 0 40 -4 40 -10z m-102 -22 c15 -15 16 -48 2
-48 -5 0 -10 -18 -10 -40 0 -27 -4 -40 -14 -40 -17 0 -30 108 -14 127 13 16
21 16 36 1z m4982 -8 c0 -5 -7 -10 -15 -10 -9 0 -18 -7 -21 -15 -4 -8 -15 -15
-25 -15 -25 0 -24 8 4 31 24 20 57 25 57 9z m-5476 -16 c9 -22 8 -24 -9 -24
-8 0 -15 9 -15 20 0 24 15 27 24 4z m146 1 c0 -1 -7 -8 -15 -15 -13 -10 -15
-9 -15 8 0 15 5 20 15 16 8 -4 15 -7 15 -9z m60 -5 c0 -23 -13 -26 -29 -6 -9
11 -9 15 1 19 23 10 28 7 28 -13z m5215 -70 c14 -27 14 -30 -5 -40 -18 -10
-20 -8 -20 30 0 22 2 40 5 40 2 0 11 -13 20 -30z m135 10 c0 -11 -7 -20 -15
-20 -8 0 -15 9 -15 20 0 11 7 20 15 20 8 0 15 -9 15 -20z m-5420 0 c0 -5 -4
-10 -10 -10 -5 0 -10 5 -10 10 0 6 5 10 10 10 6 0 10 -4 10 -10z m-326 -25
c-4 -8 -8 -15 -10 -15 -2 0 -4 7 -4 15 0 8 4 15 10 15 5 0 7 -7 4 -15z m223
-11 c-3 -3 -12 -4 -19 -1 -8 3 -5 6 6 6 11 1 17 -2 13 -5z m-97 -19 c0 -8 -4
-15 -10 -15 -5 0 -10 7 -10 15 0 8 5 15 10 15 6 0 10 -7 10 -15z m347 -7 c-3
-8 -6 -5 -6 6 -1 11 2 17 5 13 3 -3 4 -12 1 -19z m5058 12 c-3 -5 -10 -10 -16
-10 -5 0 -9 5 -9 10 0 6 7 10 16 10 8 0 12 -4 9 -10z m215 -3 c0 -30 -26 -67
-46 -67 -20 0 -21 3 -11 40 9 32 16 40 34 40 13 0 23 -6 23 -13z m-5080 -17
c0 -13 -7 -20 -20 -20 -13 0 -20 7 -20 20 0 13 7 20 20 20 13 0 20 -7 20 -20z
m4790 -6 c0 -8 -4 -12 -10 -9 -5 3 -10 10 -10 16 0 5 5 9 10 9 6 0 10 -7 10
-16z m-5050 -19 c0 -14 -4 -25 -10 -25 -5 0 -10 11 -10 25 0 14 5 25 10 25 6
0 10 -11 10 -25z m300 -10 c0 -8 -9 -15 -20 -15 -22 0 -27 15 -7 23 21 9 27 7
27 -8z m4910 -11 c0 -2 -7 -4 -15 -4 -8 0 -15 4 -15 10 0 5 7 7 15 4 8 -4 15
-8 15 -10z m-5793 -26 c-3 -7 -5 -2 -5 12 0 14 2 19 5 13 2 -7 2 -19 0 -25z
m511 5 c-5 -25 -28 -28 -28 -4 0 12 6 21 16 21 9 0 14 -7 12 -17z m266 2 c-4
-8 -10 -15 -15 -15 -5 0 -9 7 -9 15 0 8 7 15 15 15 9 0 12 -6 9 -15z m224 -2
c-5 -26 -38 -29 -38 -4 0 15 6 21 21 21 14 0 19 -5 17 -17z m4613 -26 c-8 -8
-11 -3 -11 19 1 25 2 27 11 11 8 -14 8 -22 0 -30z m78 -52 c0 -29 0 -28 -14 9
-8 22 -11 44 -8 50 9 13 22 -22 22 -59z m151 49 c0 -8 -5 -12 -10 -9 -6 4 -8
11 -5 16 9 14 15 11 15 -7z m-5222 -17 c2 -12 -3 -17 -17 -17 -12 0 -21 6 -21
13 0 31 32 34 38 4z m-378 -7 c0 -5 -5 -10 -11 -10 -5 0 -7 5 -4 10 3 6 8 10
11 10 2 0 4 -4 4 -10z m407 -22 c-3 -8 -6 -5 -6 6 -1 11 2 17 5 13 3 -3 4 -12
1 -19z m-147 -3 c0 -8 -4 -15 -10 -15 -5 0 -10 7 -10 15 0 8 5 15 10 15 6 0
10 -7 10 -15z m507 -12 c-9 -9 -20 -13 -24 -9 -4 4 -1 11 7 16 25 16 35 11 17
-7z m-223 -8 c6 -18 -2 -45 -15 -45 -5 0 -9 14 -9 30 0 32 14 40 24 15z m96 5
c0 -5 -7 -7 -15 -4 -8 4 -15 8 -15 10 0 2 7 4 15 4 8 0 15 -4 15 -10z m-160
-16 c0 -8 -4 -12 -10 -9 -5 3 -10 10 -10 16 0 5 5 9 10 9 6 0 10 -7 10 -16z
m4850 6 c0 -5 -4 -10 -10 -10 -5 0 -10 5 -10 10 0 6 5 10 10 10 6 0 10 -4 10
-10z m-5040 -20 c0 -11 -7 -20 -15 -20 -8 0 -15 9 -15 20 0 11 7 20 15 20 8 0
15 -9 15 -20z m4940 5 c0 -1 -7 -8 -15 -15 -13 -10 -15 -9 -15 8 0 15 5 20 15
16 8 -4 15 -7 15 -9z m290 -30 c0 -27 -6 -30 -29 -16 -12 8 -12 12 -2 25 19
23 31 20 31 -9z m-4880 5 c0 -5 -2 -10 -4 -10 -3 0 -8 5 -11 10 -3 6 -1 10 4
10 6 0 11 -4 11 -10z m-507 -7 c-7 -2 -19 -2 -25 0 -7 3 -2 5 12 5 14 0 19 -2
13 -5z m-53 -29 c0 -8 -5 -12 -10 -9 -6 4 -8 11 -5 16 9 14 15 11 15 -7z
m5390 -24 c10 -7 12 -12 4 -17 -6 -5 -15 -19 -20 -33 l-8 -25 -6 30 c-10 49 0
64 30 45z m-5070 -10 c0 -5 17 -10 37 -10 l37 0 -35 -36 -34 -35 -3 35 c-3 35
-5 36 -43 36 -21 0 -39 5 -39 10 0 6 18 10 40 10 22 0 40 -4 40 -10z m241 -41
c-9 -23 -9 -22 -8 8 1 18 6 28 10 24 4 -4 3 -18 -2 -32z m4721 6 c-2 -19 -8
-32 -13 -29 -14 8 -11 52 4 57 6 3 12 6 12 6 1 1 -1 -15 -3 -34z m-5070 13
c-9 -9 -15 -9 -24 0 -9 9 -7 12 12 12 19 0 21 -3 12 -12z m273 -9 c4 -11 4
-23 1 -26 -3 -4 -6 1 -6 10 0 10 -5 14 -15 11 -9 -4 -15 0 -15 10 0 23 27 20
35 -5z m4955 -6 c0 -22 -2 -25 -10 -13 -13 20 -13 40 0 40 6 0 10 -12 10 -27z
m-4962 -58 c3 -25 2 -27 -12 -16 -19 16 -22 55 -3 49 6 -3 14 -17 15 -33z
m-303 15 c3 -5 -1 -10 -10 -10 -9 0 -13 5 -10 10 3 6 8 10 10 10 2 0 7 -4 10
-10z m85 -54 c0 -19 -4 -38 -10 -41 -6 -4 -10 5 -10 19 0 17 -6 26 -15 26 -24
0 -30 29 -9 44 25 19 44 -2 44 -48z m4740 54 c0 -5 -4 -10 -10 -10 -5 0 -10 5
-10 10 0 6 5 10 10 10 6 0 10 -4 10 -10z m-4404 -66 c-5 -18 -2 -24 11 -24 12
0 14 -3 6 -11 -20 -20 -33 1 -33 49 1 38 3 44 11 29 6 -10 8 -29 5 -43z m57
16 c-23 -23 -39 -9 -22 18 10 16 16 18 26 10 11 -9 10 -14 -4 -28z m4512 30
c-3 -5 -12 -10 -20 -10 -8 0 -17 5 -20 10 -4 6 5 10 20 10 15 0 24 -4 20 -10z
m-4967 -53 c2 -12 -3 -17 -17 -17 -15 0 -21 6 -21 21 0 25 33 22 38 -4z m5086
-4 c12 -45 18 -173 7 -173 -6 0 -11 7 -11 15 0 8 -5 15 -11 15 -6 0 -9 -7 -5
-15 3 -9 0 -15 -9 -15 -8 0 -15 -9 -15 -20 0 -13 7 -20 20 -20 13 0 20 -7 20
-20 0 -13 -7 -20 -20 -20 -13 0 -20 7 -20 20 0 13 -7 20 -20 20 -11 0 -20 5
-20 10 0 6 -18 10 -39 10 -30 0 -40 -4 -43 -17 -3 -16 -6 -15 -28 7 -22 22
-23 25 -7 28 13 3 17 13 17 43 0 32 3 39 20 39 11 0 20 7 20 15 0 8 9 15 20
15 11 0 20 -7 20 -15 0 -18 17 -20 23 -2 3 8 12 5 29 -10 13 -13 30 -23 36
-23 17 0 15 37 -3 44 -14 5 -19 57 -8 79 7 13 22 7 27 -10z m-84 -3 c0 -5 -5
-10 -11 -10 -5 0 -7 5 -4 10 3 6 8 10 11 10 2 0 4 -4 4 -10z m-5333 -6 c-3 -3
-12 -4 -19 -1 -8 3 -5 6 6 6 11 1 17 -2 13 -5z m-110 -26 c-3 -8 -6 -5 -6 6
-1 11 2 17 5 13 3 -3 4 -12 1 -19z m783 -3 c19 -20 21 -27 10 -40 -10 -13 -9
-15 7 -15 10 0 24 5 31 12 9 9 15 9 24 0 9 -9 9 -12 0 -12 -7 0 -12 -15 -12
-39 0 -22 -5 -42 -12 -44 -9 -4 -6 -11 10 -24 15 -12 21 -25 16 -36 -6 -17
-24 -24 -24 -9 0 4 -12 20 -27 36 -17 19 -23 31 -15 34 18 6 14 20 -8 27 -13
4 -20 15 -20 32 0 41 -27 63 -77 63 -23 0 -43 5 -43 10 0 6 20 10 44 10 25 0
48 5 51 10 10 15 20 12 45 -15z m-170 -65 c0 -5 -4 -10 -10 -10 -5 0 -10 5
-10 10 0 6 5 10 10 10 6 0 10 -4 10 -10z m-230 -30 c0 -5 -7 -10 -15 -10 -8 0
-15 5 -15 10 0 6 7 10 15 10 8 0 15 -4 15 -10z m348 -17 c25 -6 24 -5 16 -27
-13 -33 -74 -15 -74 21 0 20 4 24 18 18 9 -4 27 -10 40 -12z m4472 -13 c0 -5
-7 -10 -16 -10 -8 0 -12 5 -9 10 3 6 10 10 16 10 5 0 9 -4 9 -10z m-4720 -50
c0 -11 -6 -20 -14 -20 -18 0 -29 16 -21 30 11 18 35 11 35 -10z m-375 -30 c3
-5 -1 -10 -9 -10 -9 0 -16 5 -16 10 0 6 4 10 9 10 6 0 13 -4 16 -10z m5339 -2
c24 -25 26 -47 6 -58 -31 -16 -40 -12 -40 20 0 36 -21 40 -35 8 -6 -13 -18
-24 -28 -26 -17 -3 -17 -2 0 32 15 30 23 36 51 36 18 0 39 -6 46 -12z m-401
-18 c-6 -21 -24 -23 -30 -3 -2 6 4 13 14 16 10 3 19 5 20 6 0 0 -1 -8 -4 -19z
m127 -30 c0 -22 -4 -40 -10 -40 -5 0 -10 18 -10 40 0 22 5 40 10 40 6 0 10
-18 10 -40z m-4450 0 c0 -21 -24 -28 -35 -10 -8 14 3 30 21 30 8 0 14 -9 14
-20z m66 -15 c24 -59 20 -66 -33 -63 -36 2 -49 7 -51 21 -2 9 3 17 10 17 8 0
19 14 25 30 15 39 31 38 49 -5z m-386 15 c0 -5 -18 -10 -40 -10 -22 0 -40 5
-40 10 0 6 18 10 40 10 22 0 40 -4 40 -10z m5120 -15 c0 -14 -4 -25 -9 -25
-10 0 -21 36 -13 44 12 13 22 5 22 -19z m-5317 -30 c-5 -13 -23 -22 -23 -11 0
15 14 35 21 31 4 -3 6 -12 2 -20z m5127 15 c0 -5 -5 -10 -11 -10 -5 0 -7 5 -4
10 3 6 8 10 11 10 2 0 4 -4 4 -10z m-4690 -30 c0 -12 10 -25 25 -32 30 -14 33
-28 5 -28 -36 0 -74 53 -53 73 12 13 23 7 23 -13z m4828 8 c-6 -18 -22 -20
-43 -3 -19 14 -18 14 13 15 22 0 32 -4 30 -12z m-83 -29 c0 -8 -10 -14 -23
-14 -20 0 -41 -19 -42 -37 0 -4 12 -13 27 -20 36 -17 44 -50 11 -45 -13 2 -17
2 -10 0 26 -9 10 -23 -27 -23 -22 0 -41 -5 -43 -12 -5 -15 -28 -1 -28 17 0 8
15 17 35 21 46 8 49 39 4 48 -60 12 -87 7 -91 -14 -2 -14 -7 -17 -17 -11 -22
14 22 51 62 51 24 0 35 6 42 23 15 32 100 47 100 16z m55 -49 c0 -16 -2 -30
-5 -30 -8 0 -23 44 -18 53 10 17 23 5 23 -23z m-4922 13 c-21 -2 -38 -8 -38
-14 0 -5 -18 -9 -40 -9 -25 0 -40 5 -40 13 0 8 23 12 78 13 42 0 60 -1 40 -3z
m4530 -23 l23 -19 -21 -21 -20 -20 0 24 c0 13 -10 30 -22 39 -22 15 -22 16 -3
16 11 0 30 -8 43 -19z m-4728 -35 c0 -14 -4 -25 -10 -25 -11 0 -14 33 -3 43
11 11 13 8 13 -18z m218 -37 c-3 -7 -11 -13 -18 -13 -7 0 -15 6 -17 13 -3 7 4
12 17 12 13 0 20 -5 18 -12z m152 2 c0 -5 -9 -10 -19 -10 -11 0 -23 5 -26 10
-4 6 5 10 19 10 14 0 26 -4 26 -10z m4400 1 c0 -5 -7 -14 -15 -21 -13 -10 -15
-9 -15 9 0 12 6 21 15 21 8 0 15 -4 15 -9z m-4835 -31 c3 -5 -1 -10 -9 -10 -9
0 -16 5 -16 10 0 6 4 10 9 10 6 0 13 -4 16 -10z m4875 -21 c-8 -13 -7 -19 0
-19 6 0 8 -5 4 -11 -10 -18 -24 13 -17 39 3 12 9 19 14 16 5 -3 5 -14 -1 -25z
m70 9 c0 -18 -2 -20 -9 -8 -6 8 -7 18 -5 22 9 14 14 9 14 -14z m-4842 1 c-2
-6 -7 -10 -11 -10 -4 1 -17 1 -29 1 -19 0 -20 2 -8 10 20 13 53 13 48 -1z
m332 -15 c0 -8 -10 -14 -25 -14 -14 0 -25 -6 -25 -12 0 -9 -3 -8 -9 2 -12 18
-5 29 23 40 25 9 36 4 36 -16z m4560 1 c0 -8 -7 -15 -15 -15 -16 0 -20 12 -8
23 11 12 23 8 23 -8z m-4683 -35 c-12 -20 -72 -38 -85 -26 -10 11 20 26 51 26
18 0 27 5 27 16 0 8 4 12 10 9 6 -4 5 -13 -3 -25z m4233 11 c0 -5 -9 -7 -20
-4 -11 3 -20 7 -20 9 0 2 9 4 20 4 11 0 20 -4 20 -9z m-4337 -8 c-7 -2 -21 -2
-30 0 -10 3 -4 5 12 5 17 0 24 -2 18 -5z m-155 -22 c41 -11 97 -31 125 -45 58
-28 135 -102 162 -156 10 -19 22 -44 28 -55 18 -35 35 -128 40 -220 4 -61 3
-77 -3 -50 -4 22 -23 78 -40 125 -18 47 -38 103 -44 125 -22 76 -39 97 -111
139 -165 97 -282 84 -414 -44 -68 -67 -86 -103 -111 -232 -6 -32 -14 -58 -17
-58 -10 0 6 115 21 151 14 33 13 39 -5 77 -18 36 -23 40 -39 29 -28 -17 -37 0
-12 25 17 18 24 19 36 9 9 -7 15 -16 14 -19 -1 -4 1 -17 6 -29 11 -34 36 -29
36 7 0 22 7 33 28 44 15 8 42 30 60 49 18 19 46 40 62 47 17 7 30 20 30 29 0
10 3 12 8 5 10 -16 82 -6 76 11 -6 13 -116 16 -130 3 -4 -5 -1 -8 7 -8 8 0 -1
-9 -19 -20 -25 -15 -37 -18 -52 -10 -10 5 -29 10 -41 10 -21 0 -22 1 -4 20 10
11 28 20 40 20 11 0 27 6 33 13 7 6 41 15 75 18 34 3 67 7 72 7 6 1 43 -7 83
-17z m4972 -1 c0 -13 -7 -20 -20 -20 -13 0 -20 7 -20 20 0 13 7 20 20 20 13 0
20 -7 20 -20z m58 -23 c2 -12 -3 -17 -17 -17 -12 0 -21 6 -21 13 0 31 32 34
38 4z m-5373 -61 c15 -14 14 -48 -1 -53 -6 -2 -20 6 -33 18 -21 20 -21 22 -4
35 22 17 22 17 38 0z m5217 -14 c-2 -13 2 -22 10 -22 8 0 6 -5 -5 -11 -9 -5
-22 -7 -27 -4 -11 7 -14 48 -3 59 13 12 28 -1 25 -22z m38 13 c0 -8 -4 -15
-10 -15 -5 0 -10 7 -10 15 0 8 5 15 10 15 6 0 10 -7 10 -15z m-207 -18 c3 -7
-1 -21 -8 -30 -11 -15 -13 -16 -19 -2 -6 17 2 45 14 45 4 0 10 -6 13 -13z
m-4986 -13 c-3 -3 -12 -4 -19 -1 -8 3 -5 6 6 6 11 1 17 -2 13 -5z m-139 -21
c-2 -10 -13 -22 -26 -28 -14 -6 -20 -15 -17 -25 4 -8 3 -11 -1 -7 -7 7 -54
-49 -54 -64 0 -5 -12 -20 -26 -36 -14 -15 -23 -35 -21 -45 7 -23 -20 -47 -29
-25 -10 28 53 145 107 197 55 53 73 61 67 33z m4909 11 c-3 -3 -12 -4 -19 -1
-8 3 -5 6 6 6 11 1 17 -2 13 -5z m383 -44 c0 -15 -27 -23 -47 -16 -15 6 -15 8
-3 16 20 13 50 12 50 0z m-542 -30 c-2 -6 -8 -6 -18 0 -13 9 -13 11 0 20 15
10 25 0 18 -20z m286 -15 c-4 -8 -8 -15 -10 -15 -2 0 -4 7 -4 15 0 8 4 15 10
15 5 0 7 -7 4 -15z m246 1 c31 -13 31 -13 9 -19 -43 -12 -59 -8 -59 13 0 24 7
25 50 6z m-5335 -36 c-3 -5 -10 -10 -16 -10 -5 0 -9 5 -9 10 0 6 7 10 16 10 8
0 12 -4 9 -10z m3401 -57 c-10 -10 -19 5 -10 18 6 11 8 11 12 0 2 -7 1 -15 -2
-18z m1787 20 c-7 -2 -19 -2 -25 0 -7 3 -2 5 12 5 14 0 19 -2 13 -5z m87 -33
c0 -38 -2 -40 -30 -40 -28 0 -30 2 -30 40 0 38 2 40 30 40 28 0 30 -2 30 -40z
m-5240 -5 c0 -8 -4 -15 -10 -15 -5 0 -10 7 -10 15 0 8 5 15 10 15 6 0 10 -7
10 -15z m5314 -35 c18 0 18 -1 1 -20 -15 -17 -16 -22 -4 -36 12 -15 14 -14 19
2 6 17 8 17 19 -4 11 -21 10 -22 -24 -22 -34 0 -35 -1 -35 -40 0 -33 -3 -40
-20 -40 -15 0 -20 7 -20 25 0 18 -5 25 -19 25 -21 0 -31 19 -31 56 0 29 7 30
35 4 20 -19 23 -19 35 -5 11 13 10 19 -4 33 -22 26 -20 35 7 28 12 -3 31 -6
41 -6z m-144 -40 c0 -23 -4 -30 -20 -30 -23 0 -35 22 -26 45 3 8 15 15 26 15
16 0 20 -7 20 -30z m-480 -11 c0 -18 -2 -19 -15 -9 -15 12 -12 30 6 30 5 0 9
-10 9 -21z m-1160 -20 c0 -6 -4 -7 -10 -4 -5 3 -10 11 -10 16 0 6 5 7 10 4 6
-3 10 -11 10 -16z m-3530 1 c0 -5 -5 -10 -11 -10 -5 0 -7 5 -4 10 3 6 8 10 11
10 2 0 4 -4 4 -10z m5010 0 c0 -5 -4 -10 -10 -10 -5 0 -10 5 -10 10 0 6 5 10
10 10 6 0 10 -4 10 -10z m-1789 -83 c-13 -13 -15 31 -3 60 5 14 8 10 10 -16 2
-18 -1 -38 -7 -44z m-3294 -17 c-2 -58 0 -70 12 -71 12 -1 12 -2 -1 -6 -11 -3
-18 -14 -18 -30 0 -15 -2 -24 -5 -22 -7 8 -16 179 -10 190 17 26 25 3 22 -61z
m3662 29 c13 -17 20 -33 17 -36 -8 -8 -28 11 -49 46 -24 40 1 33 32 -10z
m1261 25 c0 -8 -5 -12 -10 -9 -6 4 -8 11 -5 16 9 14 15 11 15 -7z m-4750 -134
c0 -16 -7 -30 -15 -34 -18 -7 -25 8 -21 44 2 14 4 39 5 55 l2 30 14 -34 c8
-18 15 -46 15 -61z m4270 80 c0 -5 -2 -10 -4 -10 -3 0 -8 5 -11 10 -3 6 -1 10
4 10 6 0 11 -4 11 -10z m105 0 c-3 -5 -10 -10 -16 -10 -5 0 -9 5 -9 10 0 6 7
10 16 10 8 0 12 -4 9 -10z m55 0 c0 -5 -4 -10 -9 -10 -6 0 -13 5 -16 10 -3 6
1 10 9 10 9 0 16 -4 16 -10z m280 6 c0 -2 -3 -11 -6 -20 -9 -23 -34 -20 -34 4
0 13 7 20 20 20 11 0 20 -2 20 -4z m388 -8 c-3 -7 -15 -13 -28 -13 -13 0 -25
6 -27 13 -3 8 6 12 27 12 21 0 30 -4 28 -12z m-4788 -89 c0 -53 -3 -59 -36
-89 -37 -32 -51 -34 -40 -4 3 9 12 14 20 11 10 -4 17 7 25 36 20 72 21 88 6
94 -8 3 -15 11 -15 19 0 12 4 12 20 2 16 -10 20 -24 20 -69z m4597 24 c-3 -2
-13 -3 -23 -1 -16 3 -16 4 2 22 18 18 19 18 22 2 2 -10 1 -20 -1 -23z m-369 9
c2 -7 -5 -12 -17 -12 -14 0 -19 5 -14 15 6 17 25 15 31 -3z m429 -4 c-3 -8 -6
-5 -6 6 -1 11 2 17 5 13 3 -3 4 -12 1 -19z m-5100 -20 c-3 -7 -5 -2 -5 12 0
14 2 19 5 13 2 -7 2 -19 0 -25z m3248 -20 c0 -24 3 -61 7 -83 l7 -40 -15 35
c-18 38 -25 85 -17 113 8 31 18 18 18 -25z m-3015 22 c0 -5 -5 -10 -11 -10 -5
0 -7 5 -4 10 3 6 8 10 11 10 2 0 4 -4 4 -10z m4970 -30 c0 -22 -4 -40 -10 -40
-5 0 -10 18 -10 40 0 22 5 40 10 40 6 0 10 -18 10 -40z m-1484 -7 c-7 -7 -26
7 -26 19 0 6 6 6 15 -2 9 -7 13 -15 11 -17z m-3749 -15 c-3 -8 -6 -5 -6 6 -1
11 2 17 5 13 3 -3 4 -12 1 -19z m113 -28 c0 -20 -5 -30 -15 -30 -29 0 -18 50
13 59 1 1 2 -12 2 -29z m49 -2 c-11 -20 -12 -20 -21 -3 -8 12 -7 20 3 26 20
12 30 0 18 -23z m-151 -6 c6 -18 -15 -14 -22 4 -4 10 -1 14 6 12 6 -2 14 -10
16 -16z m182 -32 c0 -11 5 -20 12 -20 6 0 8 -3 5 -7 -4 -3 2 -13 13 -20 11 -8
27 -27 35 -43 8 -16 34 -47 57 -69 l42 -39 -37 -10 c-27 -8 -47 -7 -69 0 -31
11 -31 11 -9 20 12 4 34 5 48 2 23 -6 24 -5 14 14 -6 11 -20 24 -31 27 -11 3
-20 15 -20 25 0 22 -22 39 -28 22 -2 -7 -8 -12 -14 -12 -6 0 -7 7 -4 15 6 16
4 21 -27 83 -14 27 -14 32 -2 32 8 0 15 -9 15 -20z m4900 10 c0 -5 -4 -10 -10
-10 -5 0 -10 5 -10 10 0 6 5 10 10 10 6 0 10 -4 10 -10z m-5060 -52 c-1 -26
-3 -30 -10 -16 -6 9 -7 23 -4 32 9 25 14 19 14 -16z m100 23 c0 -6 -4 -13 -10
-16 -5 -3 -10 1 -10 9 0 9 5 16 10 16 6 0 10 -4 10 -9z m3195 -31 c11 -12 13
-20 6 -20 -6 0 -21 9 -33 20 -17 15 -18 20 -6 20 8 0 23 -9 33 -20z m1825 10
c0 -5 -2 -10 -4 -10 -3 0 -8 5 -11 10 -3 6 -1 10 4 10 6 0 11 -4 11 -10z
m-4680 -10 c0 -11 -39 -34 -46 -27 -6 6 25 37 37 37 5 0 9 -4 9 -10z m320 -44
c-1 -19 -2 -19 -21 7 -28 37 -68 36 -112 -3 -39 -33 -54 -38 -54 -14 0 37 136
73 170 45 9 -8 17 -24 17 -35z m-624 -14 c-12 -11 -18 7 -10 30 l8 23 4 -23
c2 -13 1 -26 -2 -30z m4940 24 c3 -14 3 -30 -1 -35 -8 -14 -35 -14 -35 -1 0 6
7 10 15 10 17 0 20 16 5 25 -13 8 -13 25 0 25 5 0 12 -11 16 -24z m-1072 -1
c-4 -8 -11 -12 -16 -9 -6 4 -5 10 3 15 19 12 19 11 13 -6z m876 -10 c0 -8 7
-15 15 -15 17 0 20 -16 4 -26 -7 -4 -9 -22 -4 -50 4 -29 2 -44 -4 -44 -7 0
-11 24 -11 60 0 47 -3 60 -15 60 -16 0 -20 12 -8 23 11 12 23 8 23 -8z m-4540
-11 c0 -2 -7 -4 -15 -4 -8 0 -15 4 -15 10 0 5 7 7 15 4 8 -4 15 -8 15 -10z
m3727 0 c-3 -3 -12 -4 -19 -1 -8 3 -5 6 6 6 11 1 17 -2 13 -5z m-4007 -43 c-1
-13 -3 -13 -15 3 -19 26 -19 42 0 26 8 -7 15 -20 15 -29z m3926 22 c7 -10 14
-24 14 -32 0 -11 -3 -11 -16 -1 -8 8 -20 22 -25 32 -13 24 9 25 27 1z m1254
-23 c0 -46 -14 -53 -25 -13 -3 15 -14 33 -23 40 -15 11 -13 12 16 13 31 0 32
-1 32 -40z m-5295 20 c3 -5 1 -10 -4 -10 -6 0 -11 5 -11 10 0 6 2 10 4 10 3 0
8 -4 11 -10z m811 -15 c-3 -9 -11 -13 -16 -10 -8 5 -7 11 1 21 14 18 24 11 15
-11z m-571 6 c3 -5 1 -12 -4 -16 -6 -3 -8 -12 -4 -20 3 -8 0 -15 -6 -15 -6 0
-11 14 -11 30 0 29 13 40 25 21z m-45 -43 c0 -11 -6 -15 -20 -11 -23 6 -26 23
-8 41 14 14 28 -1 28 -30z m360 26 c0 -2 -7 -4 -15 -4 -8 0 -15 4 -15 10 0 5
7 7 15 4 8 -4 15 -8 15 -10z m-100 -8 c0 -8 11 -17 25 -20 24 -6 35 -26 15
-26 -14 0 -70 42 -70 52 0 4 7 8 15 8 8 0 15 -6 15 -14z m180 0 c0 -15 -37
-32 -47 -22 -4 3 1 6 10 6 10 0 17 7 17 15 0 8 5 15 10 15 6 0 10 -6 10 -14z
m4380 -11 c0 -8 -4 -15 -10 -15 -5 0 -7 7 -4 15 4 8 8 15 10 15 2 0 4 -7 4
-15z m194 -11 c4 -9 -4 -18 -20 -24 -33 -13 -32 -13 -44 10 -9 17 -7 22 12 29
27 10 44 5 52 -15z m-4429 -3 c-8 -13 -35 -15 -35 -2 0 5 8 11 18 13 21 5 26
2 17 -11z m-558 -78 c17 -15 17 -23 -1 -23 -8 0 -18 9 -21 20 -3 11 -9 20 -13
20 -12 0 -62 50 -62 62 0 7 19 -6 42 -27 23 -22 48 -45 55 -52z m3423 77 c12
-8 11 -10 -5 -9 -11 1 -31 5 -45 9 -24 8 -24 8 5 9 17 0 37 -4 45 -9z m-3065
-10 c3 -5 -1 -10 -9 -10 -9 0 -16 5 -16 10 0 6 4 10 9 10 6 0 13 -4 16 -10z
m3875 0 c0 -5 -2 -10 -4 -10 -3 0 -8 5 -11 10 -3 6 -1 10 4 10 6 0 11 -4 11
-10z m320 -11 c0 -11 -4 -17 -10 -14 -5 3 -10 13 -10 21 0 8 5 14 10 14 6 0
10 -9 10 -21z m-4560 -15 c0 -8 -4 -12 -10 -9 -5 3 -10 10 -10 16 0 5 5 9 10
9 6 0 10 -7 10 -16z m508 4 c-3 -7 -15 -13 -28 -13 -13 0 -25 6 -27 13 -3 8 6
12 27 12 21 0 30 -4 28 -12z m117 -35 c-10 -21 -21 -44 -25 -52 -3 -8 -12 -17
-19 -19 -9 -3 -7 7 5 29 10 19 17 38 16 43 -3 11 29 48 36 41 3 -3 -3 -22 -13
-42z m-385 -10 c0 -7 8 -13 19 -13 20 0 107 -45 116 -61 4 -5 15 -9 26 -9 10
0 19 -4 19 -8 0 -5 21 -30 47 -56 25 -26 56 -66 68 -89 12 -23 31 -59 43 -80
12 -21 22 -42 22 -47 0 -5 -20 -19 -45 -31 -25 -12 -54 -31 -65 -41 -27 -26
-52 -19 -61 15 -19 69 -74 157 -99 157 -5 0 -10 7 -10 15 0 8 -4 15 -10 15 -5
0 -27 16 -49 35 -21 19 -43 35 -49 35 -6 0 -12 3 -14 8 -6 15 -76 61 -102 68
-14 3 -26 10 -26 15 0 5 -6 9 -14 9 -19 0 -31 19 -19 31 6 6 15 4 23 -6 7 -8
23 -15 37 -15 13 0 26 -7 29 -15 4 -9 19 -15 37 -15 29 0 30 1 11 14 -25 19
-11 32 19 19 28 -13 32 -43 5 -43 -10 0 -18 -4 -18 -9 0 -13 34 -24 38 -12 6
18 30 12 37 -9 9 -29 23 -25 27 7 2 17 10 29 21 31 14 3 17 -5 17 -53 0 -52 2
-56 20 -50 32 10 43 -4 25 -31 -12 -19 -13 -24 -2 -24 7 0 18 5 25 12 7 7 12
9 12 5 0 -4 9 -3 21 3 16 9 26 8 44 -4 13 -9 26 -12 29 -7 8 13 -14 28 -53 36
-41 9 -91 57 -91 88 0 27 -31 49 -51 36 -23 -14 -32 -10 -26 12 4 13 0 22 -11
26 -9 4 -26 17 -37 30 -11 13 -26 23 -33 23 -7 0 -12 7 -12 16 0 13 4 13 30
-3 17 -9 30 -23 30 -30z m3555 37 c3 -5 1 -10 -4 -10 -6 0 -11 5 -11 10 0 6 2
10 4 10 3 0 8 -4 11 -10z m-3394 -43 c-10 -9 -11 -8 -5 6 3 10 9 15 12 12 3
-3 0 -11 -7 -18z m3589 -50 c0 -6 -11 0 -25 13 -14 13 -25 28 -25 33 0 6 11 0
25 -13 14 -13 25 -28 25 -33z m580 43 c0 -5 -2 -10 -4 -10 -3 0 -8 5 -11 10
-3 6 -1 10 4 10 6 0 11 -4 11 -10z m83 -11 c-4 -16 -8 -17 -14 -7 -13 19 -11
28 5 28 9 0 12 -7 9 -21z m-4726 -19 c3 -10 2 -11 -4 -4 -4 6 -15 14 -23 17
-11 5 -9 6 4 4 11 -1 21 -9 23 -17z m619 5 c-22 -17 -46 -20 -46 -6 0 10 22
18 50 20 11 0 10 -4 -4 -14z m3724 -10 c13 -16 3 -20 -24 -9 -9 3 -13 10 -10
15 8 13 20 11 34 -6z m-3790 -5 c0 -5 -4 -10 -10 -10 -5 0 -10 5 -10 10 0 6 5
10 10 10 6 0 10 -4 10 -10z m3260 0 c0 -5 -4 -10 -9 -10 -6 0 -13 5 -16 10 -3
6 1 10 9 10 9 0 16 -4 16 -10z m177 -35 c24 -17 68 -83 61 -91 -3 -2 -17 10
-31 28 -14 18 -35 43 -46 56 -25 25 -16 29 16 7z m396 8 c-7 -2 -19 -2 -25 0
-7 3 -2 5 12 5 14 0 19 -2 13 -5z m-3788 -14 c12 -19 -5 -23 -22 -6 -16 16
-16 17 -1 17 9 0 20 -5 23 -11z m-845 -9 c0 -5 -12 -10 -27 -9 l-28 1 25 8
c14 4 26 8 28 9 1 1 2 -3 2 -9z m5108 -77 c-8 -10 -18 -26 -21 -35 -6 -18 -47
-14 -47 6 0 12 48 44 69 45 12 1 12 -2 -1 -16z m226 -29 c9 -36 2 -40 -36 -21
-18 9 -42 19 -53 22 -29 9 0 25 46 25 31 0 38 -4 43 -26z m-4844 6 c0 -5 -7
-7 -15 -4 -8 4 -15 8 -15 10 0 2 7 4 15 4 8 0 15 -4 15 -10z m-543 -46 c-3 -3
-12 -4 -19 -1 -8 3 -5 6 6 6 11 1 17 -2 13 -5z m5229 -22 c3 -45 5 -52 17 -52
9 0 12 9 10 28 -4 26 -3 27 36 27 36 0 41 -3 41 -23 0 -15 -7 -26 -20 -29 -11
-3 -20 -12 -20 -19 0 -19 -26 -18 -60 3 -24 14 -28 22 -25 52 4 46 4 46 13 37
4 -4 7 -15 8 -24z m-4580 -3 c3 -6 0 -15 -7 -20 -21 -13 -25 -11 -25 11 0 21
20 27 32 9z m-81 -49 c3 -5 -3 -10 -14 -10 -12 0 -21 5 -21 10 0 6 6 10 14 10
8 0 18 -4 21 -10z m622 4 c-3 -3 -12 -4 -19 -1 -8 3 -5 6 6 6 11 1 17 -2 13
-5z m-17 -39 c0 -8 -4 -15 -10 -15 -5 0 -10 7 -10 15 0 8 5 15 10 15 6 0 10
-7 10 -15z m-725 -5 c3 -5 -1 -10 -10 -10 -9 0 -13 5 -10 10 3 6 8 10 10 10 2
0 7 -4 10 -10z m785 -47 c-15 -32 -25 -16 -15 24 4 19 9 23 17 15 9 -9 8 -19
-2 -39z m3250 43 c0 -11 -19 -15 -25 -6 -3 5 1 10 9 10 9 0 16 -2 16 -4z m565
-16 c10 -11 14 -20 9 -20 -12 1 -44 25 -44 34 0 12 17 6 35 -14z m-4645 -9 c0
-5 -7 -11 -15 -15 -15 -5 -20 5 -8 17 9 10 23 9 23 -2z m670 0 c0 -12 -20 -25
-27 -18 -7 7 6 27 18 27 5 0 9 -4 9 -9z m3314 -7 c3 -8 2 -12 -4 -9 -6 3 -10
10 -10 16 0 14 7 11 14 -7z m151 6 c3 -5 -1 -10 -10 -10 -9 0 -13 5 -10 10 3
6 8 10 10 10 2 0 7 -4 10 -10z m75 -5 c0 -8 -7 -15 -16 -15 -14 0 -14 3 -4 15
7 8 14 15 16 15 2 0 4 -7 4 -15z m-3420 1 c0 -3 -4 -8 -10 -11 -5 -3 -10 -1
-10 4 0 6 5 11 10 11 6 0 10 -2 10 -4z m-55 -15 c7 -12 -12 -24 -25 -16 -11 7
-4 25 10 25 5 0 11 -4 15 -9z m-165 -41 c0 -5 -6 -10 -14 -10 -8 0 -18 5 -21
10 -3 6 3 10 14 10 12 0 21 -4 21 -10z m316 -27 c-11 -11 -17 4 -9 23 7 18 8
18 11 1 2 -10 1 -21 -2 -24z m3404 27 c0 -5 -4 -10 -9 -10 -6 0 -13 5 -16 10
-3 6 1 10 9 10 9 0 16 -4 16 -10z m-3500 -7 c-1 -20 -28 -55 -34 -45 -8 13 10
52 24 52 6 0 10 -3 10 -7z m3196 -13 c16 0 19 -36 4 -45 -5 -3 -10 3 -10 15 0
12 -4 19 -8 16 -4 -2 -8 5 -9 17 0 12 1 16 4 10 3 -7 11 -13 19 -13z m544 0
c0 -5 -5 -10 -11 -10 -5 0 -7 5 -4 10 3 6 8 10 11 10 2 0 4 -4 4 -10z m-4000
-20 c0 -11 -2 -20 -5 -20 -2 0 -9 9 -15 20 -9 16 -8 20 5 20 8 0 15 -9 15 -20z
m350 -45 c0 -27 -30 -74 -85 -132 -23 -26 -38 -33 -67 -33 -21 0 -38 5 -38 10
0 6 17 10 39 10 35 0 42 5 82 56 34 45 40 57 28 65 -11 7 -11 9 0 9 9 0 11 7
8 21 -3 11 -3 27 0 35 8 22 33 -9 33 -41z m3496 28 c-10 -10 -19 5 -10 18 6
11 8 11 12 0 2 -7 1 -15 -2 -18z m558 10 c3 -10 9 -24 12 -30 3 -7 1 -13 -4
-13 -6 0 -15 14 -21 30 -5 17 -6 30 -2 30 5 0 11 -8 15 -17z m-4205 -20 c3 -1
-32 -35 -81 -78 -16 -14 -18 -13 -18 8 0 29 18 47 46 47 18 0 20 4 16 28 -5
25 -4 26 14 12 10 -8 21 -15 23 -17z m-199 -33 c0 -5 -5 -10 -11 -10 -5 0 -7
5 -4 10 3 6 8 10 11 10 2 0 4 -4 4 -10z m3490 -23 c0 -5 -4 -5 -10 -2 -5 3
-10 14 -10 23 0 15 2 15 10 2 5 -8 10 -19 10 -23z m525 23 c4 -6 -5 -10 -20
-10 -15 0 -24 4 -20 10 3 6 12 10 20 10 8 0 17 -4 20 -10z m-3745 -15 c0 -3
-4 -13 -9 -23 -6 -9 -12 -29 -16 -44 -5 -25 -10 -28 -45 -28 -22 0 -40 3 -40
8 1 14 49 42 55 32 11 -18 26 -10 25 13 -3 38 -1 47 15 47 8 0 15 -2 15 -5z
m4050 -15 c22 -17 23 -21 10 -34 -13 -13 -18 -13 -38 2 -15 12 -21 24 -16 35
8 21 13 21 44 -3z m92 8 c-7 -7 -12 -21 -12 -32 0 -14 -3 -17 -11 -9 -12 12 8
53 25 53 6 0 5 -5 -2 -12z m184 -33 c16 -12 17 -16 5 -24 -20 -13 -41 -2 -41
20 0 23 10 24 36 4z m-346 -20 c0 -8 -7 -15 -15 -15 -26 0 -18 20 13 29 1 1 2
-6 2 -14z m-4300 -6 c0 -8 12 -10 35 -6 29 5 40 1 67 -23 24 -22 38 -28 60
-23 29 6 36 -5 16 -25 -9 -9 -6 -12 14 -12 18 0 29 -7 33 -20 7 -22 -1 -40
-17 -40 -6 0 -17 -8 -24 -17 -10 -14 -15 -15 -24 -6 -9 8 -7 14 9 22 31 17 27
47 -8 59 -16 6 -32 7 -36 4 -4 -4 -11 1 -16 11 -11 19 -44 23 -55 6 -3 -6 0
-15 7 -20 10 -6 11 -9 2 -9 -7 0 -13 -7 -13 -15 0 -21 -18 -19 -32 5 -7 11
-20 20 -29 20 -20 0 -28 25 -21 68 4 29 32 47 32 21z m4760 1 c8 -5 12 -11 9
-14 -8 -8 -79 6 -79 15 0 12 51 11 70 -1z m-530 -31 c10 -18 9 -20 -7 -17 -10
2 -19 11 -21 21 -5 24 15 21 28 -4z m140 11 c0 -5 -4 -10 -9 -10 -6 0 -13 5
-16 10 -3 6 1 10 9 10 9 0 16 -4 16 -10z m-562 -102 l-1 -53 -6 45 c-6 43 -5
60 5 60 2 0 3 -24 2 -52z m487 42 c3 -5 -3 -10 -14 -10 -12 0 -21 5 -21 10 0
6 6 10 14 10 8 0 18 -4 21 -10z m-4035 -20 c0 -5 -4 -10 -10 -10 -5 0 -10 5
-10 10 0 6 5 10 10 10 6 0 10 -4 10 -10z m1920 -10 c12 -8 12 -10 -5 -10 -11
0 -27 5 -35 10 -12 8 -12 10 5 10 11 0 27 -5 35 -10z m-2042 -17 c-4 -20 -35
-30 -50 -15 -15 15 0 32 28 32 19 0 25 -5 22 -17z m2510 -48 c12 -19 18 -35
13 -35 -11 0 -61 58 -61 70 0 18 25 -1 48 -35z m1319 13 c-3 -8 -6 -5 -6 6 -1
11 2 17 5 13 3 -3 4 -12 1 -19z m263 18 c0 -3 -4 -8 -10 -11 -5 -3 -10 -1 -10
4 0 6 5 11 10 11 6 0 10 -2 10 -4z m-4144 -41 c23 -25 23 -26 4 -45 -20 -20
-40 -26 -40 -12 0 4 5 13 12 20 9 9 9 15 0 24 -13 13 -16 38 -6 38 4 0 17 -11
30 -25z m4206 0 c-2 -14 -8 -25 -13 -25 -14 0 -11 38 4 43 6 3 13 6 13 6 1 1
-1 -10 -4 -24z m42 -1 c9 -3 16 -10 16 -15 0 -14 -26 -10 -40 6 -13 16 -3 20
24 9z m72 -39 c4 -16 13 -25 25 -25 10 0 19 -7 19 -15 0 -11 -11 -15 -39 -15
-38 0 -38 0 -37 40 1 45 22 55 32 15z m-692 -36 c10 -22 15 -43 12 -46 -3 -4
-11 8 -17 25 -6 18 -15 32 -20 32 -5 0 -9 7 -9 15 0 27 15 15 34 -26z m626 15
c0 -2 -12 -4 -27 -4 -21 0 -24 3 -14 9 13 8 41 5 41 -5z m-75 -44 c0 -35 -4
-45 -17 -48 -15 -3 -18 4 -18 48 0 44 3 51 18 48 13 -3 17 -13 17 -48z m-4375
30 c0 -5 -4 -10 -10 -10 -5 0 -10 5 -10 10 0 6 5 10 10 10 6 0 10 -4 10 -10z
m105 0 c-3 -5 -10 -10 -16 -10 -5 0 -9 5 -9 10 0 6 7 10 16 10 8 0 12 -4 9
-10z m3835 -11 c0 -5 -4 -9 -10 -9 -5 0 -10 7 -10 16 0 8 5 12 10 9 6 -3 10
-10 10 -16z m-3760 7 c0 -2 -18 -19 -41 -37 -31 -25 -43 -29 -52 -20 -15 16
16 41 50 41 13 0 23 5 23 10 0 6 5 10 10 10 6 0 10 -2 10 -4z m3816 -23 c-10
-10 -19 5 -10 18 6 11 8 11 12 0 2 -7 1 -15 -2 -18z m154 7 c0 -12 -28 -25
-36 -17 -9 9 6 27 22 27 8 0 14 -5 14 -10z m530 -11 c14 -11 18 -18 10 -15 -8
3 -23 9 -32 12 -10 4 -18 10 -18 15 0 14 13 10 40 -12z m-4820 -24 c0 -8 -4
-15 -10 -15 -5 0 -10 7 -10 15 0 8 5 15 10 15 6 0 10 -7 10 -15z m143 -28 c-2
-4 1 -14 7 -22 13 -16 2 -33 -38 -54 -21 -11 -22 -11 -11 7 9 14 9 27 1 52
-15 41 -8 51 22 37 13 -7 22 -15 19 -20z m3992 23 c3 -5 2 -10 -4 -10 -5 0
-13 -9 -16 -20 -8 -26 -25 -16 -25 16 0 17 5 24 19 24 11 0 23 -4 26 -10z
m851 -30 c6 0 21 -9 34 -20 18 -16 21 -23 12 -32 -9 -9 -12 -8 -12 6 0 12 -5
16 -15 12 -18 -6 -65 13 -65 27 0 5 -6 5 -13 -2 -11 -8 -16 -5 -25 13 -15 34
-5 38 36 15 20 -10 42 -19 48 -19z m-303 23 c-13 -2 -33 -2 -45 0 -13 2 -3 4
22 4 25 0 35 -2 23 -4z m-4463 -12 c0 -5 -7 -11 -15 -15 -9 -3 -15 0 -15 9 0
8 7 15 15 15 8 0 15 -4 15 -9z m3833 2 c-19 -7 -15 -34 7 -63 19 -24 26 -50
14 -50 -8 0 -29 23 -37 40 -4 8 -14 25 -23 37 -16 22 -15 23 7 32 13 5 29 10
34 10 6 -1 4 -3 -2 -6z m407 -33 l0 -40 -60 0 c-47 0 -58 3 -54 14 3 8 12 17
20 20 8 3 14 15 14 26 0 17 6 20 40 20 l40 0 0 -40z m-4431 -27 c8 -15 5 -18
-20 -17 -47 2 -51 3 -43 15 4 8 9 7 15 -2 8 -11 11 -11 20 4 5 9 12 17 14 17
2 0 9 -8 14 -17z m5151 -24 c0 -5 -18 -9 -40 -9 -26 0 -40 5 -40 13 0 9 12 11
40 9 22 -2 40 -8 40 -13z m-943 -7 c-10 -10 -17 -24 -17 -31 0 -7 -4 -10 -10
-6 -14 8 10 55 28 55 13 0 13 -3 -1 -18z m-62 -40 c-6 -16 -7 -16 -16 0 -5 9
-6 24 -3 33 7 16 8 16 16 0 5 -9 7 -24 3 -33z m1082 8 c40 0 53 -4 53 -15 0
-18 -46 -21 -53 -2 -3 9 -8 9 -16 1 -16 -15 -61 4 -61 26 0 11 3 11 12 2 7 -7
36 -12 65 -12z m-5582 -30 c3 -5 1 -10 -4 -10 -6 0 -11 5 -11 10 0 6 2 10 4
10 3 0 8 -4 11 -10z m4585 -11 c0 -5 9 -9 20 -9 13 0 20 -7 20 -20 0 -25 -10
-25 -49 -2 -35 19 -43 53 -11 45 11 -3 20 -9 20 -14z m-4420 7 c0 -3 -4 -8
-10 -11 -5 -3 -10 -1 -10 4 0 6 5 11 10 11 6 0 10 -2 10 -4z m120 0 c0 -3 -13
-14 -30 -26 -25 -18 -30 -19 -30 -6 0 9 7 16 15 16 8 0 15 5 15 10 0 6 7 10
15 10 8 0 15 -2 15 -4z m4166 -13 c7 -10 13 -27 13 -38 0 -19 -1 -19 -19 4
-19 22 -27 51 -14 51 4 0 13 -8 20 -17z m-4356 -48 c0 -8 -7 -15 -15 -15 -16
0 -20 12 -8 23 11 12 23 8 23 -8z m100 1 c0 -7 -7 -19 -15 -26 -16 -13 -20 -3
-9 24 8 20 24 21 24 2z m940 -72 c0 -9 -5 -14 -12 -12 -18 6 -21 28 -4 28 9 0
16 -7 16 -16z m3341 -58 c11 -13 12 -46 0 -46 -8 0 -22 61 -20 90 1 8 4 4 6
-10 3 -14 9 -29 14 -34z m-3421 20 c0 -3 -4 -8 -10 -11 -5 -3 -10 -1 -10 4 0
6 5 11 10 11 6 0 10 -2 10 -4z m90 -8 c0 -7 -5 -20 -10 -28 -9 -13 -11 -13
-19 0 -6 9 -6 19 1 27 13 17 28 17 28 1z m-1180 -38 c0 -5 -7 -10 -15 -10 -8
0 -15 5 -15 10 0 6 7 10 15 10 8 0 15 -4 15 -10z m1045 -20 c3 -5 -3 -10 -14
-10 -11 0 -23 5 -26 10 -3 6 3 10 14 10 11 0 23 -4 26 -10z m-1010 -40 c3 -5
1 -10 -4 -10 -6 0 -11 5 -11 10 0 6 2 10 4 10 3 0 8 -4 11 -10z m929 1 c10
-16 -5 -41 -24 -41 -19 0 -34 25 -24 41 3 5 14 9 24 9 10 0 21 -4 24 -9z m67
-6 c0 -13 -41 -19 -41 -7 0 11 20 22 33 18 5 -1 8 -6 8 -11z m-131 -50 c0 -22
4 -25 40 -25 29 0 40 -4 40 -15 0 -10 -10 -15 -32 -15 -47 0 -79 -11 -75 -24
5 -15 64 -8 93 10 24 16 38 6 28 -20 -7 -17 6 -21 22 -7 14 13 64 23 64 12 0
-12 -46 -41 -65 -41 -8 0 -23 -8 -34 -19 -10 -10 -32 -25 -50 -34 -31 -15 -31
-15 -25 9 6 23 -5 32 -20 17 -4 -4 -21 -8 -37 -9 -22 -1 -29 3 -29 17 0 15 -7
19 -40 19 -33 0 -40 3 -40 20 0 17 7 20 40 20 22 0 40 5 40 10 0 6 9 10 20 10
17 0 20 7 20 39 0 33 -4 40 -22 44 -13 2 -4 5 20 6 39 1 42 -1 42 -24z m247 1
c-7 -14 -23 -27 -37 -29 -36 -7 -36 -1 -1 18 17 8 31 20 31 25 0 6 4 10 9 10
5 0 4 -11 -2 -24z m-567 -26 c0 -5 -4 -10 -10 -10 -5 0 -10 5 -10 10 0 6 5 10
10 10 6 0 10 -4 10 -10z m-620 -15 c-7 -9 -15 -13 -19 -10 -3 3 1 10 9 15 21
14 24 12 10 -5z m1086 -10 c-16 -16 -36 -20 -36 -7 0 14 12 22 32 22 17 0 18
-2 4 -15z m-1189 -21 c-3 -3 -12 -4 -19 -1 -8 3 -5 6 6 6 11 1 17 -2 13 -5z
m861 -46 c-2 -13 -10 -23 -18 -23 -8 0 -16 10 -18 23 -3 17 2 22 18 22 16 0
21 -5 18 -22z m143 -68 c12 7 20 7 24 0 3 -6 -2 -13 -12 -16 -10 -3 -26 -10
-35 -15 -15 -8 -18 -5 -18 18 0 20 3 24 12 15 7 -7 17 -8 29 -2z m-361 -25 c0
-8 -7 -15 -15 -15 -8 0 -15 7 -15 15 0 8 7 15 15 15 8 0 15 -7 15 -15z"/>
<path d="M7413 4283 c6 -20 26 -201 31 -278 1 -27 3 23 3 111 0 148 -2 162
-20 173 -16 11 -18 10 -14 -6z"/>
<path d="M7396 3975 c-3 -8 -1 -15 4 -15 6 0 10 7 10 15 0 8 -2 15 -4 15 -2 0
-6 -7 -10 -15z"/>
<path d="M7420 3920 c0 -5 5 -10 10 -10 6 0 10 5 10 10 0 6 -4 10 -10 10 -5 0
-10 -4 -10 -10z"/>
<path d="M7260 3876 c0 -14 5 -28 10 -31 6 -4 10 7 10 24 0 17 -4 31 -10 31
-5 0 -10 -11 -10 -24z"/>
<path d="M7317 3864 c-14 -14 -7 -35 11 -32 9 2 17 10 17 17 0 16 -18 25 -28
15z"/>
<path d="M7230 3810 c0 -5 5 -10 11 -10 5 0 7 5 4 10 -3 6 -8 10 -11 10 -2 0
-4 -4 -4 -10z"/>
<path d="M7255 3690 c-3 -5 3 -10 15 -10 12 0 18 5 15 10 -3 6 -10 10 -15 10
-5 0 -12 -4 -15 -10z"/>
<path d="M7020 3500 c0 -5 5 -10 10 -10 6 0 10 5 10 10 0 6 -4 10 -10 10 -5 0
-10 -4 -10 -10z"/>
<path d="M7040 3449 c0 -5 5 -7 10 -4 6 3 10 8 10 11 0 2 -4 4 -10 4 -5 0 -10
-5 -10 -11z"/>
<path d="M6957 3420 c-3 -13 0 -20 9 -20 15 0 19 26 5 34 -5 3 -11 -3 -14 -14z"/>
<path d="M6880 3285 c0 -8 2 -15 4 -15 2 0 6 7 10 15 3 8 1 15 -4 15 -6 0 -10
-7 -10 -15z"/>
<path d="M6800 3246 c0 -17 5 -26 16 -26 10 0 14 7 12 22 -5 32 -28 35 -28 4z"/>
<path d="M3916 4385 c-9 -23 -8 -24 14 -18 12 3 19 10 17 16 -6 18 -24 19 -31
2z"/>
<path d="M5661 4011 c-10 -6 -10 -10 -1 -16 13 -8 24 -1 19 14 -3 6 -10 7 -18
2z"/>
<path d="M6490 3975 c0 -8 5 -15 10 -15 6 0 10 7 10 15 0 8 -4 15 -10 15 -5 0
-10 -7 -10 -15z"/>
<path d="M5680 3943 c0 -39 12 -42 37 -10 10 13 25 26 33 29 8 3 -4 7 -27 9
-43 4 -43 4 -43 -28z"/>
<path d="M6105 3970 c-3 -5 1 -10 9 -10 9 0 16 5 16 10 0 6 -4 10 -9 10 -6 0
-13 -4 -16 -10z"/>
<path d="M6050 3966 c0 -2 9 -6 20 -9 11 -3 18 -1 14 4 -5 9 -34 13 -34 5z"/>
<path d="M5665 3880 c-3 -5 -1 -10 4 -10 6 0 11 5 11 10 0 6 -2 10 -4 10 -3 0
-8 -4 -11 -10z"/>
<path d="M6078 3883 c7 -3 16 -2 19 1 4 3 -2 6 -13 5 -11 0 -14 -3 -6 -6z"/>
<path d="M5335 3870 c3 -5 10 -10 16 -10 5 0 9 5 9 10 0 6 -7 10 -16 10 -8 0
-12 -4 -9 -10z"/>
<path d="M4572 3808 c3 -7 13 -15 22 -16 12 -3 17 1 14 10 -3 7 -13 15 -22 16
-12 3 -17 -1 -14 -10z"/>
<path d="M6071 3780 c10 -28 14 -30 66 -30 33 0 52 4 48 10 -3 6 -28 10 -56
10 -42 0 -49 3 -49 20 0 11 -4 20 -9 20 -6 0 -6 -12 0 -30z"/>
<path d="M5920 3760 c0 -11 5 -20 10 -20 6 0 10 9 10 20 0 11 -4 20 -10 20 -5
0 -10 -9 -10 -20z"/>
<path d="M6400 3765 c0 -10 7 -15 18 -13 21 4 19 22 -2 26 -10 2 -16 -3 -16
-13z"/>
<path d="M5470 3741 c0 -12 6 -21 16 -21 9 0 14 7 12 17 -5 25 -28 28 -28 4z"/>
<path d="M4630 3730 c6 -11 16 -20 23 -19 9 0 9 2 0 6 -7 2 -13 11 -13 19 0 8
-5 14 -10 14 -7 0 -7 -6 0 -20z"/>
<path d="M6698 3723 c7 -3 16 -2 19 1 4 3 -2 6 -13 5 -11 0 -14 -3 -6 -6z"/>
<path d="M5880 3711 c0 -18 18 -21 30 -6 10 13 9 15 -9 15 -11 0 -21 -4 -21
-9z"/>
<path d="M4255 3670 c-3 -5 1 -10 9 -10 9 0 16 5 16 10 0 6 -4 10 -9 10 -6 0
-13 -4 -16 -10z"/>
<path d="M5734 3655 c-18 -14 -18 -14 9 -15 15 0 27 4 27 9 0 18 -17 20 -36 6z"/>
<path d="M6130 3650 c-12 -8 -11 -10 8 -10 12 0 22 5 22 10 0 13 -11 13 -30 0z"/>
<path d="M6545 3650 c-3 -5 -1 -10 4 -10 6 0 11 5 11 10 0 6 -2 10 -4 10 -3 0
-8 -4 -11 -10z"/>
<path d="M6640 3650 c0 -5 5 -10 11 -10 5 0 7 5 4 10 -3 6 -8 10 -11 10 -2 0
-4 -4 -4 -10z"/>
<path d="M4446 3643 c-12 -12 -5 -23 14 -23 11 0 20 4 20 9 0 11 -26 22 -34
14z"/>
<path d="M4220 3633 c0 -5 7 -17 15 -27 12 -16 18 -17 28 -7 10 10 8 15 -7 27
-22 15 -36 18 -36 7z"/>
<path d="M4605 3630 c3 -5 12 -7 20 -3 21 7 19 13 -6 13 -11 0 -18 -4 -14 -10z"/>
<path d="M5905 3630 c3 -5 8 -10 11 -10 2 0 4 5 4 10 0 6 -5 10 -11 10 -5 0
-7 -4 -4 -10z"/>
<path d="M6761 3622 c-14 -26 -7 -42 10 -25 6 6 9 19 7 29 -3 17 -5 17 -17 -4z"/>
<path d="M6212 3601 c-10 -6 -7 -12 12 -24 14 -10 32 -17 41 -17 9 0 15 -9 15
-26 0 -14 4 -23 10 -19 6 3 10 15 10 25 0 10 6 21 13 23 6 3 -7 6 -30 6 -36 1
-43 4 -43 21 0 22 -7 25 -28 11z"/>
<path d="M4145 3570 c-3 -5 -1 -10 4 -10 6 0 11 5 11 10 0 6 -2 10 -4 10 -3 0
-8 -4 -11 -10z"/>
<path d="M4185 3570 c-3 -5 1 -10 9 -10 9 0 16 5 16 10 0 6 -4 10 -9 10 -6 0
-13 -4 -16 -10z"/>
<path d="M4465 3570 c-3 -5 -1 -10 4 -10 6 0 11 5 11 10 0 6 -2 10 -4 10 -3 0
-8 -4 -11 -10z"/>
<path d="M4300 3543 c0 -10 5 -25 10 -33 7 -11 10 -7 10 18 0 17 -4 32 -10 32
-5 0 -10 -8 -10 -17z"/>
<path d="M4610 3551 c0 -5 7 -11 15 -15 9 -3 15 0 15 9 0 8 -7 15 -15 15 -8 0
-15 -4 -15 -9z"/>
<path d="M6000 3551 c0 -6 5 -13 10 -16 6 -3 10 -17 10 -31 0 -13 5 -24 11
-24 8 0 9 11 5 31 -3 17 -6 35 -6 40 0 5 -7 9 -15 9 -8 0 -15 -4 -15 -9z"/>
<path d="M6350 3553 c0 -5 4 -14 9 -22 7 -11 11 -9 20 8 10 18 9 21 -9 21 -11
0 -20 -3 -20 -7z"/>
<path d="M6607 3541 c-3 -12 1 -22 10 -25 22 -9 23 -8 23 19 0 30 -25 34 -33
6z"/>
<path d="M4880 3514 c0 -8 5 -12 10 -9 6 4 8 11 5 16 -9 14 -15 11 -15 -7z"/>
<path d="M5520 3514 c0 -8 5 -12 10 -9 6 4 8 11 5 16 -9 14 -15 11 -15 -7z"/>
<path d="M6720 3520 c0 -5 7 -7 15 -4 8 4 15 8 15 10 0 2 -7 4 -15 4 -8 0 -15
-4 -15 -10z"/>
<path d="M4957 3513 c-12 -21 -18 -73 -8 -73 6 0 11 15 11 34 0 19 6 37 13 39
9 4 9 6 0 6 -6 1 -14 -2 -16 -6z"/>
<path d="M6115 3499 c-4 -5 4 -19 17 -30 20 -18 23 -19 26 -4 4 17 -14 45 -29
45 -4 0 -11 -5 -14 -11z"/>
<path d="M5840 3490 c0 -5 10 -10 23 -10 18 0 19 2 7 10 -19 13 -30 13 -30 0z"/>
<path d="M5008 3483 c7 -3 16 -2 19 1 4 3 -2 6 -13 5 -11 0 -14 -3 -6 -6z"/>
<path d="M4400 3465 c0 -16 47 -51 57 -42 3 3 3 18 -1 32 -5 18 -13 25 -31 25
-15 0 -25 -6 -25 -15z"/>
<path d="M4640 3470 c0 -5 4 -10 9 -10 6 0 13 5 16 10 3 6 -1 10 -9 10 -9 0
-16 -4 -16 -10z"/>
<path d="M4779 3464 c-15 -19 -16 -101 -1 -116 5 -5 16 -6 25 -2 13 4 17 19
17 54 0 76 -14 97 -41 64z"/>
<path d="M4857 3473 c-11 -10 -8 -73 3 -73 6 0 10 8 10 18 0 10 5 23 11 29 6
6 8 16 5 22 -8 12 -20 14 -29 4z"/>
<path d="M5573 3468 c2 -7 10 -13 17 -13 7 0 15 6 18 13 2 7 -5 12 -18 12 -13
0 -20 -5 -17 -12z"/>
<path d="M6400 3464 c0 -17 22 -14 28 4 2 7 -3 12 -12 12 -9 0 -16 -7 -16 -16z"/>
<path d="M4282 3463 c-17 -7 -5 -23 19 -23 10 0 19 7 19 15 0 15 -14 18 -38 8z"/>
<path d="M5410 3440 c0 -13 5 -20 13 -17 6 2 12 10 12 17 0 7 -6 15 -12 18 -8
2 -13 -5 -13 -18z"/>
<path d="M6486 3424 c-9 -22 -8 -24 9 -24 8 0 15 9 15 20 0 24 -15 27 -24 4z"/>
<path d="M4288 3413 c-25 -6 -22 -18 7 -31 23 -11 25 -10 25 13 0 25 -2 26
-32 18z"/>
<path d="M5166 3402 c6 -4 16 -16 22 -27 11 -20 11 -20 12 1 0 12 -7 25 -16
28 -21 8 -31 7 -18 -2z"/>
<path d="M4570 3390 c0 -5 6 -10 14 -10 8 0 18 5 21 10 3 6 -3 10 -14 10 -12
0 -21 -4 -21 -10z"/>
<path d="M4625 3390 c3 -5 8 -10 11 -10 2 0 4 5 4 10 0 6 -5 10 -11 10 -5 0
-7 -4 -4 -10z"/>
<path d="M6336 3385 c4 -8 8 -15 10 -15 2 0 4 7 4 15 0 8 -4 15 -10 15 -5 0
-7 -7 -4 -15z"/>
<path d="M6400 3389 c0 -5 5 -7 10 -4 6 3 10 8 10 11 0 2 -4 4 -10 4 -5 0 -10
-5 -10 -11z"/>
<path d="M6670 3384 c0 -8 5 -12 10 -9 6 3 10 10 10 16 0 5 -4 9 -10 9 -5 0
-10 -7 -10 -16z"/>
<path d="M4847 3363 c-11 -10 -8 -123 3 -123 6 0 10 28 10 65 0 65 -1 71 -13
58z"/>
<path d="M4337 3338 c-13 -19 -16 -20 -16 -5 -1 16 -3 16 -31 2 -26 -13 -30
-21 -30 -55 0 -23 5 -40 11 -40 7 0 10 -15 7 -40 -2 -28 0 -40 9 -40 14 0 17
30 13 111 -2 45 -1 46 30 47 39 1 45 6 33 27 -9 15 -11 14 -26 -7z"/>
<path d="M4680 3336 c0 -9 5 -16 10 -16 6 0 10 4 10 9 0 6 -4 13 -10 16 -5 3
-10 -1 -10 -9z"/>
<path d="M5696 3328 c-19 -21 -14 -47 12 -56 15 -5 34 35 27 58 -8 25 -15 24
-39 -2z"/>
<path d="M4735 3330 c-3 -5 -1 -10 4 -10 6 0 11 5 11 10 0 6 -2 10 -4 10 -3 0
-8 -4 -11 -10z"/>
<path d="M4480 3304 c0 -9 5 -14 12 -12 18 6 21 28 4 28 -9 0 -16 -7 -16 -16z"/>
<path d="M4583 3308 c2 -7 10 -13 17 -13 7 0 15 6 18 13 2 7 -5 12 -18 12 -13
0 -20 -5 -17 -12z"/>
<path d="M5320 3310 c0 -5 9 -10 20 -10 11 0 20 5 20 10 0 6 -9 10 -20 10 -11
0 -20 -4 -20 -10z"/>
<path d="M6650 3309 c0 -5 5 -7 10 -4 6 3 10 8 10 11 0 2 -4 4 -10 4 -5 0 -10
-5 -10 -11z"/>
<path d="M6104 3279 c-10 -17 13 -36 27 -22 12 12 4 33 -11 33 -5 0 -12 -5
-16 -11z"/>
<path d="M6377 3263 c-12 -11 -8 -23 8 -23 10 0 15 -10 15 -27 0 -16 4 -23 9
-17 23 24 -9 91 -32 67z"/>
<path d="M6446 3261 c-4 -7 -5 -15 -2 -18 9 -9 19 4 14 18 -4 11 -6 11 -12 0z"/>
<path d="M4392 3248 c-17 -17 -15 -76 2 -94 16 -16 86 -19 86 -4 0 6 -18 10
-40 10 l-40 0 0 40 c0 35 3 40 23 40 18 0 19 2 7 10 -19 13 -24 12 -38 -2z"/>
<path d="M6583 3246 c-6 -7 -7 -19 -3 -26 6 -9 11 -7 19 8 18 34 8 45 -16 18z"/>
<path d="M6230 3240 c8 -5 22 -9 30 -9 10 0 8 3 -5 9 -27 12 -43 12 -25 0z"/>
<path d="M4610 3236 c0 -2 7 -6 15 -10 8 -3 15 -1 15 4 0 6 -7 10 -15 10 -8 0
-15 -2 -15 -4z"/>
<path d="M4765 3230 c3 -5 13 -10 21 -10 8 0 14 5 14 10 0 6 -9 10 -21 10 -11
0 -17 -4 -14 -10z"/>
<path d="M6000 3229 c0 -5 5 -7 10 -4 6 3 10 8 10 11 0 2 -4 4 -10 4 -5 0 -10
-5 -10 -11z"/>
<path d="M6473 3213 c-8 -16 -9 -32 -4 -42 7 -12 11 -7 16 22 9 46 4 54 -12
20z"/>
<path d="M4240 3175 c0 -8 4 -15 10 -15 5 0 7 7 4 15 -4 8 -8 15 -10 15 -2 0
-4 -7 -4 -15z"/>
<path d="M4607 3166 l-27 -12 28 -27 c15 -15 31 -27 35 -27 14 0 7 20 -15 40
-18 17 -19 20 -5 20 9 0 17 5 17 10 0 6 -1 10 -2 9 -2 0 -15 -6 -31 -13z"/>
<path d="M5520 3149 c0 -5 5 -7 10 -4 6 3 10 8 10 11 0 2 -4 4 -10 4 -5 0 -10
-5 -10 -11z"/>
<path d="M6400 3150 c0 -13 11 -13 30 0 12 8 11 10 -7 10 -13 0 -23 -4 -23
-10z"/>
<path d="M5780 3120 c0 -13 7 -20 20 -20 13 0 20 7 20 20 0 13 -7 20 -20 20
-13 0 -20 -7 -20 -20z"/>
<path d="M6553 3095 c-6 -14 -7 -25 -2 -25 11 0 22 25 17 39 -1 6 -8 -1 -15
-14z"/>
<path d="M5425 3090 c-3 -5 1 -10 10 -10 9 0 13 5 10 10 -3 6 -8 10 -10 10 -2
0 -7 -4 -10 -10z"/>
<path d="M4267 3023 c-3 -32 -11 -59 -17 -61 -5 -2 -10 -12 -10 -23 0 -10 -7
-19 -15 -19 -22 0 -18 -18 6 -31 14 -7 44 -9 83 -4 l62 6 11 47 c6 26 13 54
15 62 3 8 3 12 1 8 -3 -5 -13 -8 -23 -8 -20 0 -30 -19 -30 -56 0 -13 -4 -24
-10 -24 -5 0 -10 4 -10 9 0 5 -7 17 -16 25 -8 9 -18 41 -21 71 -3 30 -9 55
-13 55 -4 0 -10 -26 -13 -57z m33 -83 c0 -13 -7 -20 -20 -20 -13 0 -20 7 -20
20 0 13 7 20 20 20 13 0 20 -7 20 -20z m20 -40 c0 -5 -18 -10 -40 -10 -22 0
-40 5 -40 10 0 6 18 10 40 10 22 0 40 -4 40 -10z"/>
<path d="M4670 3055 c0 -6 -9 -21 -19 -35 -18 -23 -21 -23 -38 -9 -10 9 -26
19 -35 22 -15 5 -18 1 -18 -23 0 -17 5 -30 10 -30 6 0 10 5 10 10 0 13 37 13
42 -1 2 -5 11 -11 21 -13 9 -1 24 -11 32 -22 14 -18 14 -18 16 6 3 42 -2 84
-12 95 -6 5 -9 5 -9 0z"/>
<path d="M5551 3044 c0 -11 3 -14 6 -6 3 7 2 16 -1 19 -3 4 -6 -2 -5 -13z"/>
<path d="M4846 3021 c-4 -7 -5 -15 -2 -18 9 -9 19 4 14 18 -4 11 -6 11 -12 0z"/>
<path d="M5647 3015 c-5 -10 0 -15 14 -15 12 0 19 5 17 12 -6 18 -25 20 -31 3z"/>
<path d="M5455 3001 c-6 -11 9 -23 19 -14 9 9 7 23 -3 23 -6 0 -12 -4 -16 -9z"/>
<path d="M3957 2968 c6 -35 19 -55 28 -46 3 3 9 22 12 42 5 34 4 36 -20 36
-24 0 -26 -3 -20 -32z"/>
<path d="M4480 2960 c0 -22 5 -40 10 -40 6 0 10 18 10 40 0 22 -4 40 -10 40
-5 0 -10 -18 -10 -40z"/>
<path d="M5788 2988 c9 -9 15 -9 24 0 9 9 7 12 -12 12 -19 0 -21 -3 -12 -12z"/>
<path d="M6385 2990 c3 -5 17 -10 31 -10 13 0 24 5 24 10 0 6 -14 10 -31 10
-17 0 -28 -4 -24 -10z"/>
<path d="M6490 2988 c0 -7 -3 -31 -7 -52 -4 -28 -3 -37 5 -32 6 4 8 14 5 23
-4 11 -3 14 5 9 8 -5 12 4 12 28 0 20 -4 36 -10 36 -5 0 -10 -6 -10 -12z"/>
<path d="M4414 2979 c-3 -6 3 -21 15 -32 16 -16 23 -19 33 -9 9 9 7 16 -7 32
-20 23 -31 25 -41 9z"/>
<path d="M5104 2979 c-3 -6 -1 -16 5 -22 8 -8 11 -5 11 11 0 24 -5 28 -16 11z"/>
<path d="M4100 2941 c-11 -21 2 -37 20 -26 6 4 17 1 25 -5 20 -16 19 -5 -1 25
-20 30 -30 31 -44 6z"/>
<path d="M4880 2930 c0 -5 -3 -9 -7 -9 -17 3 -36 -1 -31 -7 9 -8 78 7 78 17 0
5 -9 9 -20 9 -11 0 -20 -4 -20 -10z"/>
<path d="M4596 2915 c4 -8 12 -15 20 -15 19 0 18 16 -2 24 -22 9 -24 8 -18 -9z"/>
<path d="M6290 2920 c-8 -5 -10 -10 -5 -10 6 0 17 5 25 10 8 5 11 10 5 10 -5
0 -17 -5 -25 -10z"/>
<path d="M4450 2911 c0 -18 27 -24 57 -13 22 8 24 11 8 11 -11 1 -30 4 -42 7
-14 4 -23 2 -23 -5z"/>
<path d="M4110 2864 c0 -11 5 -14 16 -10 9 3 20 6 25 6 5 0 9 5 9 10 0 6 -11
10 -25 10 -16 0 -25 -6 -25 -16z"/>
<path d="M6160 2856 c0 -9 5 -16 10 -16 6 0 10 4 10 9 0 6 -4 13 -10 16 -5 3
-10 -1 -10 -9z"/>
<path d="M6426 2844 c-8 -21 -1 -28 18 -21 9 4 13 13 10 22 -8 20 -20 19 -28
-1z"/>
<path d="M6370 2791 c0 -5 7 -11 15 -15 8 -3 15 -13 15 -23 0 -15 -2 -16 -10
-3 -8 12 -10 11 -10 -7 0 -16 4 -21 15 -17 22 9 28 42 11 59 -16 17 -36 20
-36 6z"/>
<path d="M5688 2753 c6 -2 18 -2 25 0 6 3 1 5 -13 5 -14 0 -19 -2 -12 -5z"/>
<path d="M5970 2750 c0 -5 5 -10 10 -10 6 0 10 5 10 10 0 6 -4 10 -10 10 -5 0
-10 -4 -10 -10z"/>
<path d="M5885 2660 c-3 -5 -1 -10 4 -10 6 0 11 5 11 10 0 6 -2 10 -4 10 -3 0
-8 -4 -11 -10z"/>
<path d="M6006 2604 c-4 -10 -1 -14 6 -12 15 5 23 28 10 28 -5 0 -13 -7 -16
-16z"/>
<path d="M6037 2584 c-8 -8 1 -24 14 -24 5 0 9 7 9 15 0 15 -12 20 -23 9z"/>
<path d="M6220 2511 c0 -6 5 -13 10 -16 6 -3 10 1 10 9 0 9 -4 16 -10 16 -5 0
-10 -4 -10 -9z"/>
<path d="M4080 3850 c0 -28 -2 -30 -40 -30 -22 0 -40 -4 -40 -10 0 -5 20 -10
45 -10 l45 0 0 40 c0 22 -2 40 -5 40 -3 0 -5 -13 -5 -30z"/>
<path d="M4100 3840 c0 -22 5 -40 10 -40 6 0 10 18 10 40 0 22 -4 40 -10 40
-5 0 -10 -18 -10 -40z"/>
<path d="M8560 3194 c0 -8 5 -12 10 -9 6 4 8 11 5 16 -9 14 -15 11 -15 -7z"/>
<path d="M3523 1570 c1 -21 22 -34 39 -24 5 3 2 14 -8 25 -22 24 -33 24 -31
-1z"/>
<path d="M3510 1452 c0 -10 13 -29 28 -43 22 -23 29 -25 40 -13 10 11 8 15 -8
24 -11 6 -20 17 -20 24 0 8 -9 16 -20 19 -14 4 -20 0 -20 -11z"/>
<path d="M3584 1458 c-3 -5 -1 -15 5 -22 12 -15 4 -76 -10 -76 -5 0 -9 -7 -9
-15 0 -12 4 -13 19 -6 10 6 20 9 22 6 3 -2 15 5 29 15 14 10 21 22 17 26 -4 4
-13 2 -19 -4 -16 -16 -28 -15 -28 2 0 8 7 17 16 20 10 4 14 15 12 33 -2 21 -9
28 -26 29 -12 1 -25 -3 -28 -8z"/>
<path d="M3680 1064 c0 -8 5 -12 10 -9 6 3 10 10 10 16 0 5 -4 9 -10 9 -5 0
-10 -7 -10 -16z"/>
<path d="M8960 3490 c0 -5 9 -10 20 -10 11 0 20 5 20 10 0 6 -9 10 -20 10 -11
0 -20 -4 -20 -10z"/>
<path d="M8851 3223 c-18 -8 -40 -12 -47 -9 -20 8 -26 -10 -12 -34 16 -25 37
-25 77 -2 29 16 33 16 61 0 30 -17 30 -17 30 7 0 17 -6 25 -18 25 -10 0 -26 6
-37 13 -17 12 -25 12 -54 0z"/>
<path d="M8800 3130 c0 -5 18 -10 40 -10 22 0 40 5 40 10 0 6 -18 10 -40 10
-22 0 -40 -4 -40 -10z"/>
<path d="M8880 2705 c0 -9 -12 -27 -27 -40 -27 -22 -27 -24 -8 -31 29 -11 62
-47 47 -52 -12 -4 -17 -42 -6 -42 9 0 54 44 54 53 0 4 -9 7 -20 7 -17 0 -20 7
-20 39 0 22 5 41 12 43 16 6 2 38 -17 38 -8 0 -15 -7 -15 -15z"/>
<path d="M8770 2640 c0 -5 7 -10 15 -10 8 0 15 5 15 10 0 6 -7 10 -15 10 -8 0
-15 -4 -15 -10z"/>
<path d="M8400 2580 c0 -23 29 -60 47 -60 8 0 13 14 13 40 0 38 -2 40 -30 40
-23 0 -30 -4 -30 -20z"/>
<path d="M8960 2590 c0 -5 9 -10 20 -10 11 0 20 5 20 10 0 6 -9 10 -20 10 -11
0 -20 -4 -20 -10z"/>
<path d="M8610 2425 c0 -8 7 -15 15 -15 8 0 15 7 15 15 0 8 -7 15 -15 15 -8 0
-15 -7 -15 -15z"/>
<path d="M8760 2432 c0 -11 51 -35 58 -28 3 3 -1 12 -8 21 -13 16 -50 21 -50
7z"/>
<path d="M8560 2350 c0 -31 4 -40 18 -40 9 0 27 -3 40 -6 17 -5 22 -2 22 14 0
11 -8 22 -21 25 -11 3 -23 15 -26 26 -10 38 -33 24 -33 -19z"/>
<path d="M8660 2370 c0 -5 5 -10 10 -10 6 0 10 5 10 10 0 6 -4 10 -10 10 -5 0
-10 -4 -10 -10z"/>
<path d="M8400 2350 c0 -5 18 -10 40 -10 22 0 40 5 40 10 0 6 -18 10 -40 10
-22 0 -40 -4 -40 -10z"/>
<path d="M8870 2350 c0 -5 4 -10 9 -10 6 0 13 5 16 10 3 6 -1 10 -9 10 -9 0
-16 -4 -16 -10z"/>
<path d="M8400 2290 c0 -5 18 -10 40 -10 22 0 40 5 40 10 0 6 -18 10 -40 10
-22 0 -40 -4 -40 -10z"/>
<path d="M8640 2269 c0 -5 5 -7 10 -4 6 3 10 8 10 11 0 2 -4 4 -10 4 -5 0 -10
-5 -10 -11z"/>
<path d="M8420 2254 c-11 -12 -10 -18 3 -32 16 -15 18 -15 34 0 13 14 14 20 3
32 -7 9 -16 16 -20 16 -4 0 -13 -7 -20 -16z"/>
<path d="M8702 2222 c-23 -7 -12 -22 17 -22 16 0 31 -6 35 -15 6 -17 46 -21
46 -5 0 6 18 10 40 10 29 0 40 4 40 15 0 12 -5 13 -24 3 -19 -8 -39 -7 -83 4
-32 8 -64 13 -71 10z"/>
<path d="M8473 2205 c-7 -8 -13 -30 -13 -50 0 -27 4 -35 18 -35 9 0 26 -7 36
-15 30 -23 46 -18 46 13 0 22 -7 30 -30 39 -16 6 -30 18 -30 27 0 13 14 16 73
17 72 2 72 2 22 9 -75 12 -109 11 -122 -5z"/>
<path d="M5708 2123 c7 -3 16 -2 19 1 4 3 -2 6 -13 5 -11 0 -14 -3 -6 -6z"/>
<path d="M8654 2105 c11 -8 23 -15 26 -15 3 0 15 7 26 15 18 13 16 14 -26 14
-42 0 -44 -1 -26 -14z"/>
<path d="M8477 2048 c-8 -30 2 -70 17 -65 6 2 10 16 9 31 -1 21 3 26 20 26 22
1 22 1 3 15 -28 21 -43 19 -49 -7z"/>
<path d="M8426 1981 c-4 -7 -5 -15 -2 -18 9 -9 19 4 14 18 -4 11 -6 11 -12 0z"/>
<path d="M8580 1976 c0 -8 -6 -17 -12 -20 -7 -3 0 -4 17 -3 35 2 50 37 16 37
-12 0 -21 -6 -21 -14z"/>
<path d="M5916 1945 c-9 -26 -7 -32 5 -12 6 10 9 21 6 23 -2 3 -7 -2 -11 -11z"/>
<path d="M6026 1945 c4 -8 10 -15 15 -15 5 0 9 7 9 15 0 8 -7 15 -15 15 -9 0
-12 -6 -9 -15z"/>
<path d="M8460 1950 c0 -5 5 -10 10 -10 6 0 10 5 10 10 0 6 -4 10 -10 10 -5 0
-10 -4 -10 -10z"/>
<path d="M8400 1909 c0 -11 5 -17 10 -14 6 3 10 13 10 21 0 8 -4 14 -10 14 -5
0 -10 -9 -10 -21z"/>
<path d="M8260 1855 c0 -18 5 -25 20 -25 15 0 20 7 20 25 0 18 -5 25 -20 25
-15 0 -20 -7 -20 -25z"/>
<path d="M8362 1868 c7 -19 38 -22 38 -4 0 10 -9 16 -21 16 -12 0 -19 -5 -17
-12z"/>
<path d="M8760 1876 c0 -2 9 -6 20 -9 11 -3 20 -1 20 4 0 5 -9 9 -20 9 -11 0
-20 -2 -20 -4z"/>
<path d="M5650 1860 c0 -5 7 -10 16 -10 8 0 12 5 9 10 -3 6 -10 10 -16 10 -5
0 -9 -4 -9 -10z"/>
<path d="M8498 1823 c12 -2 32 -2 45 0 12 2 2 4 -23 4 -25 0 -35 -2 -22 -4z"/>
<path d="M5336 1804 c-9 -24 -7 -28 9 -14 17 14 20 30 6 30 -5 0 -12 -7 -15
-16z"/>
<path d="M6115 1810 c-3 -5 3 -10 15 -10 12 0 18 5 15 10 -3 6 -10 10 -15 10
-5 0 -12 -4 -15 -10z"/>
<path d="M8240 1810 c0 -5 5 -10 10 -10 6 0 10 5 10 10 0 6 -4 10 -10 10 -5 0
-10 -4 -10 -10z"/>
<path d="M8293 1805 c-15 -16 -18 -85 -4 -85 5 0 12 -10 16 -22 4 -14 8 -18
12 -10 2 6 11 12 18 12 7 0 15 7 19 15 4 12 0 14 -21 9 -26 -7 -26 -7 -21 45
5 53 2 60 -19 36z"/>
<path d="M8325 1789 c-9 -14 24 -38 53 -39 30 0 28 24 -3 38 -32 15 -42 15
-50 1z"/>
<path d="M8513 1760 c0 -25 2 -35 4 -22 2 12 2 32 0 45 -2 12 -4 2 -4 -23z"/>
<path d="M5880 1771 c0 -5 5 -13 10 -16 6 -3 10 -2 10 4 0 5 -4 13 -10 16 -5
3 -10 2 -10 -4z"/>
<path d="M6176 1762 c-2 -4 -1 -14 5 -22 7 -12 9 -10 9 8 0 23 -5 28 -14 14z"/>
<path d="M5600 1739 c0 -5 5 -7 10 -4 6 3 10 8 10 11 0 2 -4 4 -10 4 -5 0 -10
-5 -10 -11z"/>
<path d="M8206 1731 c-4 -5 0 -12 6 -15 7 -3 4 -4 -8 -1 -24 6 -51 -33 -41
-59 5 -12 0 -16 -18 -16 -20 0 -25 -5 -25 -26 0 -17 6 -28 20 -31 11 -3 20
-10 20 -17 1 -6 8 1 16 17 18 34 31 34 46 2 6 -14 17 -25 25 -25 15 0 18 26 3
35 -5 3 -10 15 -10 26 0 29 55 27 65 -3 6 -21 8 -21 12 -4 3 10 1 21 -4 25 -5
3 -12 14 -16 24 -4 10 -17 17 -32 17 -21 0 -25 5 -25 30 0 29 -21 42 -34 21z"/>
<path d="M8620 1730 c0 -5 5 -10 10 -10 6 0 10 5 10 10 0 6 -4 10 -10 10 -5 0
-10 -4 -10 -10z"/>
<path d="M5982 1719 c2 -7 10 -15 17 -17 8 -3 12 1 9 9 -2 7 -10 15 -17 17 -8
3 -12 -1 -9 -9z"/>
<path d="M6380 1705 c-10 -12 -9 -16 3 -21 20 -7 37 3 37 22 0 18 -24 18 -40
-1z"/>
<path d="M8470 1710 c19 -13 30 -13 30 0 0 6 -10 10 -22 10 -19 0 -20 -2 -8
-10z"/>
<path d="M6260 1696 c0 -18 17 -29 30 -21 8 5 7 11 -1 21 -15 18 -29 18 -29 0z"/>
<path d="M8590 1700 c0 -5 5 -10 10 -10 6 0 10 5 10 10 0 6 -4 10 -10 10 -5 0
-10 -4 -10 -10z"/>
<path d="M5560 1669 c0 -5 5 -7 10 -4 6 3 10 8 10 11 0 2 -4 4 -10 4 -5 0 -10
-5 -10 -11z"/>
<path d="M6465 1667 c-4 -10 -5 -21 -1 -24 10 -10 18 4 13 24 -4 17 -4 17 -12
0z"/>
<path d="M8540 1650 c0 -5 5 -10 10 -10 6 0 10 5 10 10 0 6 -4 10 -10 10 -5 0
-10 -4 -10 -10z"/>
<path d="M5550 1630 c0 -5 5 -10 10 -10 6 0 10 5 10 10 0 6 -4 10 -10 10 -5 0
-10 -4 -10 -10z"/>
<path d="M5600 1629 c0 -5 5 -7 10 -4 6 3 10 8 10 11 0 2 -4 4 -10 4 -5 0 -10
-5 -10 -11z"/>
<path d="M6422 1629 c2 -6 8 -10 13 -10 5 0 11 4 13 10 2 6 -4 11 -13 11 -9 0
-15 -5 -13 -11z"/>
<path d="M6640 1615 c0 -14 5 -25 10 -25 6 0 10 -7 10 -15 0 -23 27 -18 33 7
4 12 5 23 4 23 -1 1 -14 9 -29 18 -28 17 -28 17 -28 -8z"/>
<path d="M8357 1618 c-6 -23 14 -81 32 -92 7 -4 11 1 11 13 0 12 -5 21 -11 21
-6 0 -8 9 -4 20 7 22 -2 60 -15 60 -4 0 -10 -10 -13 -22z"/>
<path d="M6194 1619 c-3 -5 6 -9 20 -9 31 0 34 6 6 13 -11 3 -23 1 -26 -4z"/>
<path d="M6460 1608 c0 -28 15 -39 35 -25 10 8 15 19 11 25 -10 16 -46 15 -46
0z"/>
<path d="M5582 1598 c6 -16 36 -34 44 -25 9 9 -15 37 -33 37 -8 0 -13 -5 -11
-12z"/>
<path d="M8426 1591 c-11 -18 4 -60 20 -54 10 3 12 13 8 27 -8 28 -20 40 -28
27z"/>
<path d="M5380 1541 c12 -24 29 -35 37 -27 6 6 -30 46 -42 46 -3 0 -1 -9 5
-19z"/>
<path d="M6438 1553 c6 -2 18 -2 25 0 6 3 1 5 -13 5 -14 0 -19 -2 -12 -5z"/>
<path d="M6610 1556 c0 -2 7 -6 15 -10 8 -3 15 -1 15 4 0 6 -7 10 -15 10 -8 0
-15 -2 -15 -4z"/>
<path d="M6530 1521 c0 -5 7 -11 15 -15 9 -3 15 0 15 9 0 8 -7 15 -15 15 -8 0
-15 -4 -15 -9z"/>
<path d="M6691 1521 c-11 -7 -9 -11 8 -20 18 -10 21 -9 21 9 0 22 -7 25 -29
11z"/>
<path d="M8277 1513 c-17 -16 -5 -33 23 -33 22 0 30 5 30 18 0 14 -2 15 -10 2
-8 -12 -10 -12 -16 3 -6 18 -16 22 -27 10z"/>
<path d="M6140 1494 c-10 -11 -10 -14 1 -14 8 0 20 4 27 9 11 7 11 9 -1 14 -9
3 -21 -1 -27 -9z"/>
<path d="M8400 1490 c0 -19 3 -21 12 -12 9 9 9 15 0 24 -9 9 -12 7 -12 -12z"/>
<path d="M6615 1486 c-19 -13 -18 -14 6 -13 17 1 25 7 22 15 -6 15 -5 15 -28
-2z"/>
<path d="M5920 1470 c0 -5 -18 -10 -40 -10 -29 0 -40 -4 -40 -15 0 -22 69 -20
86 3 16 21 17 32 4 32 -5 0 -10 -4 -10 -10z"/>
<path d="M6000 1455 c0 -18 4 -23 15 -19 8 4 15 15 15 25 0 10 -7 19 -15 19
-9 0 -15 -9 -15 -25z"/>
<path d="M8475 1470 c3 -5 13 -10 21 -10 8 0 14 5 14 10 0 6 -9 10 -21 10 -11
0 -17 -4 -14 -10z"/>
<path d="M6123 1462 c-29 -2 -43 -8 -43 -18 0 -10 12 -14 40 -14 22 0 40 -4
40 -10 0 -6 10 -5 25 2 14 6 25 14 25 18 0 13 -46 25 -87 22z"/>
<path d="M6670 1440 c0 -5 5 -10 10 -10 6 0 10 5 10 10 0 6 -4 10 -10 10 -5 0
-10 -4 -10 -10z"/>
<path d="M6400 1420 c0 -5 -17 -10 -37 -11 -46 -1 -81 -13 -66 -22 6 -4 25 -2
42 4 17 6 40 9 51 6 11 -3 18 -1 14 4 -3 5 0 9 5 9 6 0 11 5 11 10 0 6 -4 10
-10 10 -5 0 -10 -4 -10 -10z"/>
<path d="M6900 1415 c0 -8 5 -15 10 -15 6 0 10 -18 10 -40 0 -22 5 -40 10 -40
16 0 12 77 -6 94 -19 20 -24 20 -24 1z"/>
<path d="M5950 1410 c0 -5 5 -10 11 -10 5 0 7 5 4 10 -3 6 -8 10 -11 10 -2 0
-4 -4 -4 -10z"/>
<path d="M6457 1402 c-17 -18 -23 -63 -11 -75 9 -9 34 18 34 36 0 9 -6 18 -12
20 -10 4 -9 8 2 16 8 5 12 12 9 16 -3 3 -13 -3 -22 -13z"/>
<path d="M6717 1395 c3 -8 9 -12 14 -9 12 7 11 11 -5 17 -10 4 -13 1 -9 -8z"/>
<path d="M6130 1395 c0 -9 36 -41 53 -48 22 -8 21 2 -2 31 -17 19 -51 31 -51
17z"/>
<path d="M8252 1388 c-15 -15 -16 -38 -2 -38 6 0 16 -11 22 -25 13 -30 48 -34
48 -6 0 10 -7 22 -16 25 -11 4 -15 14 -12 31 4 19 1 25 -11 25 -10 0 -22 -5
-29 -12z"/>
<path d="M5868 1368 c9 -9 15 -9 24 0 9 9 7 12 -12 12 -19 0 -21 -3 -12 -12z"/>
<path d="M6540 1366 c0 -14 29 -31 38 -22 5 5 -23 36 -32 36 -3 0 -6 -6 -6
-14z"/>
<path d="M6320 1350 c0 -5 7 -10 16 -10 8 0 12 5 9 10 -3 6 -10 10 -16 10 -5
0 -9 -4 -9 -10z"/>
<path d="M6060 1335 c-10 -12 -10 -15 4 -15 9 0 16 7 16 15 0 8 -2 15 -4 15
-2 0 -9 -7 -16 -15z"/>
<path d="M6132 1308 c6 -18 28 -21 28 -4 0 9 -7 16 -16 16 -9 0 -14 -5 -12
-12z"/>
<path d="M6560 1309 c0 -5 5 -7 10 -4 6 3 10 8 10 11 0 2 -4 4 -10 4 -5 0 -10
-5 -10 -11z"/>
<path d="M8430 1310 c0 -5 5 -10 10 -10 6 0 10 5 10 10 0 6 -4 10 -10 10 -5 0
-10 -4 -10 -10z"/>
<path d="M6623 1294 c-3 -8 -1 -20 6 -27 8 -8 11 -4 11 16 0 30 -7 35 -17 11z"/>
<path d="M8240 1290 c0 -5 -7 -10 -15 -10 -8 0 -15 -4 -15 -10 0 -13 16 -13
41 0 23 13 25 30 4 30 -8 0 -15 -4 -15 -10z"/>
<path d="M6970 1264 c0 -18 28 -49 37 -40 9 8 -14 56 -27 56 -5 0 -10 -7 -10
-16z"/>
<path d="M6500 1250 c0 -5 5 -10 10 -10 6 0 10 5 10 10 0 6 -4 10 -10 10 -5 0
-10 -4 -10 -10z"/>
<path d="M6410 1243 c8 -3 18 -11 22 -17 4 -6 10 -7 15 -3 9 10 -16 27 -37 26
-13 -1 -13 -1 0 -6z"/>
<path d="M6658 1243 c7 -3 16 -2 19 1 4 3 -2 6 -13 5 -11 0 -14 -3 -6 -6z"/>
<path d="M6050 1195 c0 -29 4 -45 13 -45 8 0 11 14 9 45 -2 25 -8 45 -13 45
-5 0 -9 -20 -9 -45z"/>
<path d="M6102 1204 c-2 -46 14 -69 38 -54 12 8 10 10 -7 10 -18 0 -22 7 -26
43 l-4 42 -1 -41z"/>
<path d="M8296 1225 c7 -18 14 -18 38 0 19 14 18 15 -12 15 -24 0 -30 -4 -26
-15z"/>
<path d="M8498 1233 c7 -3 16 -2 19 1 4 3 -2 6 -13 5 -11 0 -14 -3 -6 -6z"/>
<path d="M6915 1210 c3 -5 8 -10 11 -10 2 0 4 5 4 10 0 6 -5 10 -11 10 -5 0
-7 -4 -4 -10z"/>
<path d="M6386 1175 c-3 -8 -1 -15 4 -15 6 0 10 7 10 15 0 8 -2 15 -4 15 -2 0
-6 -7 -10 -15z"/>
<path d="M8518 1183 c7 -3 16 -2 19 1 4 3 -2 6 -13 5 -11 0 -14 -3 -6 -6z"/>
<path d="M7015 1171 c-3 -6 1 -11 9 -11 21 0 20 -16 0 -24 -18 -7 -12 -19 11
-22 10 -1 15 6 15 22 0 13 0 27 1 32 0 12 -29 14 -36 3z"/>
<path d="M5400 1112 c0 -17 80 -36 93 -23 16 16 4 23 -48 28 -29 4 -45 2 -45
-5z"/>
<path d="M7066 1101 c-4 -7 -5 -15 -2 -18 9 -9 19 4 14 18 -4 11 -6 11 -12 0z"/>
<path d="M5520 1089 c0 -5 5 -7 10 -4 6 3 10 8 10 11 0 2 -4 4 -10 4 -5 0 -10
-5 -10 -11z"/>
<path d="M6240 1079 c0 -5 5 -7 10 -4 6 3 10 8 10 11 0 2 -4 4 -10 4 -5 0 -10
-5 -10 -11z"/>
<path d="M6300 1045 c0 -8 5 -15 10 -15 6 0 10 7 10 15 0 8 -4 15 -10 15 -5 0
-10 -7 -10 -15z"/>
<path d="M6410 1040 c0 -5 5 -10 10 -10 6 0 10 5 10 10 0 6 -4 10 -10 10 -5 0
-10 -4 -10 -10z"/>
<path d="M5600 1025 c0 -8 5 -15 10 -15 6 0 10 7 10 15 0 8 -4 15 -10 15 -5 0
-10 -7 -10 -15z"/>
<path d="M7110 1031 c0 -5 5 -13 10 -16 6 -3 10 -2 10 4 0 5 -4 13 -10 16 -5
3 -10 2 -10 -4z"/>
<path d="M5500 1000 c-9 -6 -7 -11 9 -19 21 -12 41 -8 41 8 0 12 -36 20 -50
11z"/>
<path d="M5360 975 c0 -30 11 -32 33 -7 23 25 21 32 -8 32 -20 0 -25 -5 -25
-25z"/>
<path d="M5577 943 c-13 -12 -7 -44 8 -49 8 -4 15 -17 15 -30 0 -15 6 -24 15
-24 8 0 15 -5 15 -11 0 -5 4 -7 10 -4 6 3 -1 22 -15 45 -14 22 -25 49 -25 60
0 20 -11 26 -23 13z"/>
<path d="M5440 930 c0 -5 7 -10 16 -10 8 0 12 5 9 10 -3 6 -10 10 -16 10 -5 0
-9 -4 -9 -10z"/>
<path d="M6365 930 c-3 -5 3 -10 15 -10 12 0 18 5 15 10 -3 6 -10 10 -15 10
-5 0 -12 -4 -15 -10z"/>
<path d="M7150 930 c0 -5 5 -10 10 -10 6 0 10 5 10 10 0 6 -4 10 -10 10 -5 0
-10 -4 -10 -10z"/>
<path d="M8640 930 c0 -6 7 -10 15 -10 8 0 15 2 15 4 0 2 -7 6 -15 10 -8 3
-15 1 -15 -4z"/>
<path d="M5345 920 c3 -5 8 -10 11 -10 2 0 4 5 4 10 0 6 -5 10 -11 10 -5 0 -7
-4 -4 -10z"/>
<path d="M5808 923 c6 -2 18 -2 25 0 6 3 1 5 -13 5 -14 0 -19 -2 -12 -5z"/>
<path d="M5920 920 c0 -5 7 -7 15 -4 8 4 15 8 15 10 0 2 -7 4 -15 4 -8 0 -15
-4 -15 -10z"/>
<path d="M5978 908 c8 -8 9 -15 1 -25 -17 -19 7 -43 42 -43 27 0 29 -3 29 -40
0 -56 17 -50 22 7 3 42 -17 112 -32 113 -3 0 -12 -15 -20 -32 l-13 -33 -4 33
c-3 21 -10 32 -21 32 -12 0 -13 -3 -4 -12z"/>
<path d="M8400 910 c0 -13 11 -13 30 0 12 8 11 10 -7 10 -13 0 -23 -4 -23 -10z"/>
<path d="M8740 913 c0 -5 5 -15 10 -23 9 -13 11 -13 20 0 15 22 12 30 -10 30
-11 0 -20 -3 -20 -7z"/>
<path d="M8800 884 c0 -6 3 -14 8 -18 4 -4 12 -21 18 -39 l10 -31 22 45 c12
25 22 47 22 50 0 2 -18 4 -40 4 -22 0 -40 -5 -40 -11z"/>
<path d="M8480 855 c0 -8 7 -15 15 -15 8 0 15 -4 15 -10 0 -5 5 -10 10 -10 17
0 10 14 -15 33 -22 15 -25 16 -25 2z"/>
<path d="M8400 851 c0 -5 -6 -11 -12 -14 -7 -2 -1 -2 15 0 20 3 27 0 27 -11 0
-9 4 -16 9 -16 5 0 16 -3 25 -6 28 -11 17 10 -17 34 -36 24 -47 27 -47 13z"/>
<path d="M5435 830 c-4 -6 -3 -16 3 -22 6 -6 12 -6 17 2 4 6 3 16 -3 22 -6 6
-12 6 -17 -2z"/>
<path d="M5680 830 c0 -5 7 -7 15 -4 8 4 15 8 15 10 0 2 -7 4 -15 4 -8 0 -15
-4 -15 -10z"/>
<path d="M5950 830 c0 -5 -7 -10 -15 -10 -8 0 -15 -9 -15 -20 0 -11 5 -20 11
-20 6 0 17 -7 26 -15 21 -21 28 -12 11 14 -10 17 -10 25 0 41 10 17 10 20 -3
20 -8 0 -15 -4 -15 -10z"/>
<path d="M8592 828 c7 -19 45 -21 51 -4 5 12 -1 16 -24 16 -20 0 -29 -4 -27
-12z"/>
<path d="M5739 809 c-12 -8 -11 -11 1 -19 18 -12 42 -9 47 6 5 15 -31 24 -48
13z"/>
<path d="M5600 789 c0 -18 2 -19 15 -9 8 7 15 16 15 21 0 5 -7 9 -15 9 -9 0
-15 -9 -15 -21z"/>
<path d="M8540 781 c0 -11 5 -23 10 -26 6 -4 10 5 10 19 0 14 -4 26 -10 26 -5
0 -10 -9 -10 -19z"/>
<path d="M5505 770 c-3 -5 -1 -10 4 -10 6 0 11 5 11 10 0 6 -2 10 -4 10 -3 0
-8 -4 -11 -10z"/>
<path d="M5675 770 c-4 -6 3 -10 14 -10 25 0 27 6 6 13 -8 4 -17 2 -20 -3z"/>
<path d="M6311 719 c1 -24 3 -36 6 -26 4 14 8 15 18 7 7 -6 11 -19 8 -29 -3
-11 2 -21 12 -24 22 -9 33 23 12 35 -10 5 -17 15 -17 22 0 7 -9 23 -20 36
l-20 23 1 -44z"/>
<path d="M5771 691 c-9 -6 -6 -10 10 -14 28 -8 34 -3 16 11 -7 6 -19 7 -26 3z"/>
<path d="M7005 690 c-3 -5 -1 -10 4 -10 6 0 11 5 11 10 0 6 -2 10 -4 10 -3 0
-8 -4 -11 -10z"/>
<path d="M7200 679 c0 -5 5 -7 10 -4 6 3 10 8 10 11 0 2 -4 4 -10 4 -5 0 -10
-5 -10 -11z"/>
<path d="M5920 660 c0 -13 5 -17 14 -14 24 9 28 34 6 34 -13 0 -20 -7 -20 -20z"/>
<path d="M7322 620 c7 -11 16 -20 19 -20 4 0 5 9 2 20 -3 11 -12 20 -19 20
-12 0 -12 -4 -2 -20z"/>
<path d="M6080 610 c0 -5 5 -10 11 -10 5 0 7 5 4 10 -3 6 -8 10 -11 10 -2 0
-4 -4 -4 -10z"/>
<path d="M6360 600 c-18 -12 -2 -12 25 0 13 6 15 9 5 9 -8 0 -22 -4 -30 -9z"/>
<path d="M7911 594 c0 -11 3 -14 6 -6 3 7 2 16 -1 19 -3 4 -6 -2 -5 -13z"/>
<path d="M7936 579 c-9 -18 -16 -38 -16 -46 0 -7 -11 -13 -26 -13 -26 0 -26
-1 -22 -50 4 -42 2 -50 -13 -55 -11 -4 -19 -12 -19 -19 0 -8 16 -11 52 -10 43
2 57 8 73 28 28 35 35 33 35 -14 0 -22 5 -40 10 -40 15 0 12 70 -4 86 -8 8
-31 14 -50 14 -29 0 -36 4 -36 20 0 17 7 20 40 20 33 0 41 4 46 24 3 13 4 37
2 52 -2 23 -9 30 -29 32 -22 3 -30 -3 -43 -29z m60 -56 c-11 -11 -19 6 -11 24
8 17 8 17 12 0 3 -10 2 -21 -1 -24z"/>
<path d="M6190 590 c0 -5 5 -10 10 -10 6 0 10 5 10 10 0 6 -4 10 -10 10 -5 0
-10 -4 -10 -10z"/>
<path d="M7810 586 c0 -23 19 -66 29 -66 5 0 12 11 15 24 3 13 9 31 12 40 5
13 -1 16 -25 16 -20 0 -31 -5 -31 -14z"/>
<path d="M8090 595 c0 -11 24 -55 30 -55 6 0 30 44 30 55 0 3 -13 5 -30 5 -16
0 -30 -2 -30 -5z"/>
<path d="M8160 579 c0 -18 2 -19 15 -9 8 7 15 16 15 21 0 5 -7 9 -15 9 -9 0
-15 -9 -15 -21z"/>
<path d="M8265 551 c-7 -12 12 -24 25 -16 11 7 4 25 -10 25 -5 0 -11 -4 -15
-9z"/>
<path d="M8231 540 c0 -8 4 -24 9 -35 5 -13 9 -14 9 -5 0 8 -4 24 -9 35 -5 13
-9 14 -9 5z"/>
<path d="M8400 536 c0 -9 5 -16 10 -16 6 0 10 4 10 9 0 6 -4 13 -10 16 -5 3
-10 -1 -10 -9z"/>
<path d="M8796 528 c-10 -39 -7 -44 9 -14 17 33 18 36 6 36 -5 0 -11 -10 -15
-22z"/>
<path d="M8605 530 c-3 -5 3 -10 14 -10 12 0 21 5 21 10 0 6 -6 10 -14 10 -8
0 -18 -4 -21 -10z"/>
<path d="M8310 505 c0 -8 4 -15 9 -15 5 0 14 7 21 15 10 13 9 15 -9 15 -12 0
-21 -6 -21 -15z"/>
<path d="M8534 504 c3 -9 6 -18 6 -20 0 -11 17 -2 28 16 11 18 10 20 -14 20
-20 0 -25 -4 -20 -16z"/>
<path d="M8680 510 c0 -5 4 -10 9 -10 6 0 13 5 16 10 3 6 -1 10 -9 10 -9 0
-16 -4 -16 -10z"/>
<path d="M6226 492 c-2 -4 -1 -14 5 -22 7 -12 9 -10 9 8 0 23 -5 28 -14 14z"/>
<path d="M8178 473 c12 -2 32 -2 45 0 12 2 2 4 -23 4 -25 0 -35 -2 -22 -4z"/>
<path d="M8992 460 c0 -14 2 -19 5 -12 2 6 2 18 0 25 -3 6 -5 1 -5 -13z"/>
<path d="M7623 451 c-13 -11 -23 -24 -23 -30 0 -17 30 -13 36 4 4 8 15 15 25
15 10 0 19 7 19 15 0 21 -30 18 -57 -4z"/>
<path d="M8080 450 c0 -5 18 -10 40 -10 22 0 40 5 40 10 0 6 -18 10 -40 10
-22 0 -40 -4 -40 -10z"/>
<path d="M6580 435 c0 -8 7 -15 15 -15 8 0 15 4 15 9 0 5 -7 11 -15 15 -9 3
-15 0 -15 -9z"/>
<path d="M8710 439 c0 -5 5 -7 10 -4 6 3 10 8 10 11 0 2 -4 4 -10 4 -5 0 -10
-5 -10 -11z"/>
<path d="M7695 420 c4 -11 2 -20 -4 -20 -6 0 -11 -8 -11 -17 0 -11 -16 -26
-40 -37 -22 -11 -40 -22 -40 -26 0 -4 18 -15 40 -26 39 -19 40 -20 40 -71 l0
-53 40 0 c29 0 40 4 40 15 0 8 -7 15 -15 15 -11 0 -15 11 -15 40 0 36 -2 40
-25 40 -22 0 -25 4 -25 40 0 34 3 40 21 40 16 0 20 5 17 24 -1 13 3 31 11 40
12 14 10 16 -13 16 -23 0 -26 -3 -21 -20z"/>
<path d="M8213 412 c-28 -28 -29 -52 -3 -52 23 0 33 18 28 52 l-3 23 -22 -23z"/>
<path d="M8422 423 c2 -10 10 -18 18 -18 8 0 16 8 18 18 2 12 -3 17 -18 17
-15 0 -20 -5 -18 -17z"/>
<path d="M8832 429 c2 -6 8 -10 13 -10 5 0 11 4 13 10 2 6 -4 11 -13 11 -9 0
-15 -5 -13 -11z"/>
<path d="M8080 420 c0 -5 18 -10 40 -10 22 0 40 5 40 10 0 6 -18 10 -40 10
-22 0 -40 -4 -40 -10z"/>
<path d="M7745 387 c-4 -10 -5 -21 -1 -24 10 -10 18 4 13 24 -4 17 -4 17 -12
0z"/>
<path d="M5080 346 c0 -15 18 -31 26 -23 7 7 -7 37 -17 37 -5 0 -9 -6 -9 -14z"/>
<path d="M7301 328 c28 -91 48 -169 55 -223 7 -43 13 -60 24 -60 17 0 19 40 8
135 -8 65 -18 100 -28 100 -4 0 -12 18 -19 40 -8 28 -17 40 -31 40 -16 0 -17
-4 -9 -32z"/>
<path d="M7800 347 c0 -21 12 -28 27 -16 19 16 16 29 -7 29 -11 0 -20 -6 -20
-13z"/>
<path d="M8032 348 c6 -18 28 -21 28 -4 0 9 -7 16 -16 16 -9 0 -14 -5 -12 -12z"/>
<path d="M7761 294 c0 -11 3 -14 6 -6 3 7 2 16 -1 19 -3 4 -6 -2 -5 -13z"/>
<path d="M7903 300 c-28 -11 -29 -23 -5 -46 16 -17 17 -17 20 4 3 18 10 22 43
22 28 0 39 4 39 15 0 17 -59 20 -97 5z"/>
<path d="M5425 290 c-3 -5 -1 -10 4 -10 6 0 11 5 11 10 0 6 -2 10 -4 10 -3 0
-8 -4 -11 -10z"/>
<path d="M5520 290 c0 -5 5 -10 10 -10 6 0 10 5 10 10 0 6 -4 10 -10 10 -5 0
-10 -4 -10 -10z"/>
<path d="M5610 260 c-20 -12 -6 -23 30 -23 36 0 50 11 30 23 -19 12 -41 12
-60 0z"/>
<path d="M7760 240 c0 -17 7 -20 40 -20 33 0 40 3 40 20 0 17 -7 20 -40 20
-33 0 -40 -3 -40 -20z"/>
<path d="M7549 168 c-3 -62 3 -123 12 -126 5 -2 9 -12 9 -23 0 -32 17 -21 24
16 4 20 13 35 21 35 41 0 14 49 -27 50 -23 0 -23 14 -1 35 16 16 18 16 30 -1
14 -18 15 -18 29 0 26 36 18 46 -41 46 l-55 0 -1 -32z"/>
<path d="M8088 193 c7 -3 16 -2 19 1 4 3 -2 6 -13 5 -11 0 -14 -3 -6 -6z"/>
<path d="M8160 181 c0 -12 6 -21 16 -21 9 0 14 7 12 17 -5 25 -28 28 -28 4z"/>
<path d="M8280 190 c0 -5 5 -10 10 -10 6 0 10 5 10 10 0 6 -4 10 -10 10 -5 0
-10 -4 -10 -10z"/>
<path d="M5235 130 c-3 -5 -1 -10 4 -10 6 0 11 5 11 10 0 6 -2 10 -4 10 -3 0
-8 -4 -11 -10z"/>
<path d="M8118 123 c-20 -5 -23 -18 -7 -28 6 -4 19 2 30 14 20 21 14 24 -23
14z"/>
<path d="M5338 113 c7 -3 16 -2 19 1 4 3 -2 6 -13 5 -11 0 -14 -3 -6 -6z"/>
<path d="M7681 104 c0 -11 3 -14 6 -6 3 7 2 16 -1 19 -3 4 -6 -2 -5 -13z"/>
<path d="M7751 54 c0 -11 3 -14 6 -6 3 7 2 16 -1 19 -3 4 -6 -2 -5 -13z"/>
<path d="M7000 55 c0 -19 27 -55 41 -55 16 0 17 4 8 30 -7 19 -18 30 -30 30
-10 0 -19 -2 -19 -5z"/>
<path d="M7712 20 c0 -14 2 -19 5 -12 2 6 2 18 0 25 -3 6 -5 1 -5 -13z"/>
<path d="M7802 20 c0 -14 2 -19 5 -12 2 6 2 18 0 25 -3 6 -5 1 -5 -13z"/>
</g>
</svg>
